<svg width="691" height="631" viewBox="0 0 691 631" fill="none" xmlns="http://www.w3.org/2000/svg">
<path d="M323.194 465.753H9.28288C6.82223 465.749 4.46359 464.77 2.72364 463.03C0.983697 461.29 0.00429809 458.931 0 456.471V15.2005C0.0256608 12.754 1.01448 10.4161 2.75213 8.69369C4.48977 6.97126 6.83622 6.00304 9.28288 5.9989H323.194C325.653 6.00321 328.01 6.98313 329.747 8.72354C331.485 10.4639 332.46 12.8226 332.46 15.2818V456.471C332.46 458.93 331.485 461.288 329.747 463.029C328.01 464.769 325.653 465.749 323.194 465.753ZM9.28288 6.32405C6.93002 6.32834 4.67476 7.26492 3.01103 8.92864C1.34731 10.5924 0.410728 12.8476 0.406431 15.2005V456.471C0.410728 458.823 1.34731 461.079 3.01103 462.742C4.67476 464.406 6.93002 465.343 9.28288 465.347H323.194C325.545 465.343 327.799 464.406 329.46 462.741C331.121 461.077 332.054 458.822 332.054 456.471V15.2005C332.054 12.8491 331.121 10.5938 329.46 8.92964C327.799 7.26545 325.545 6.32835 323.194 6.32405H9.28288Z" fill="#E6E6E6"/>
<path d="M674.837 465.753H360.91C358.451 465.749 356.094 464.769 354.357 463.029C352.619 461.288 351.644 458.93 351.644 456.471V15.2005C351.665 12.7554 352.65 10.4176 354.385 8.69471C356.12 6.97183 358.465 6.00309 360.91 5.9989H674.837C677.283 6.00309 679.627 6.97183 681.362 8.69471C683.097 10.4176 684.083 12.7554 684.104 15.2005V456.471C684.104 458.93 683.128 461.288 681.391 463.029C679.653 464.769 677.297 465.749 674.837 465.753ZM360.91 6.32405C358.559 6.32835 356.305 7.26545 354.644 8.92964C352.983 10.5938 352.05 12.8491 352.05 15.2005V456.471C352.05 458.822 352.983 461.077 354.644 462.741C356.305 464.406 358.559 465.343 360.91 465.347H674.837C677.192 465.343 679.449 464.407 681.115 462.743C682.781 461.08 683.722 458.825 683.73 456.471V15.2005C683.722 12.8461 682.781 10.5909 681.115 8.92765C679.449 7.26438 677.192 6.32833 674.837 6.32405H360.91Z" fill="#E6E6E6"/>
<path d="M273.365 231.536L271.138 422.623C263.27 486.205 150.558 536.684 150.558 536.684C150.558 536.684 37.8306 486.254 29.9134 422.623L27.6211 231.536L148.087 191.884L273.365 231.536Z" fill="#F5F5F5"/>
<path d="M257.644 243.631L255.71 415.21C248.849 470.663 150.542 514.688 150.542 514.688C150.542 514.688 52.2342 470.663 45.3899 415.21L43.3252 243.631L148.396 209.052L257.644 243.631Z" fill="#E0E0E0"/>
<path d="M250.752 254.458L248.931 411.975C242.428 463.998 150.331 505.226 150.331 505.226C150.331 505.226 58.1687 463.949 51.7471 411.975L49.8125 254.458L148.315 222.041L250.752 254.458Z" stroke="white" stroke-width="3" stroke-linecap="round" stroke-linejoin="round"/>
<path d="M651.46 167.043H434.621V547.527H651.46V167.043Z" fill="#F5F5F5"/>
<path d="M635.739 182H450.65V547.527H635.739V182Z" fill="#E0E0E0"/>
<path d="M455.853 549.153C455.528 549.155 455.207 549.088 454.91 548.958C454.616 548.841 454.35 548.664 454.129 548.438C453.893 548.216 453.71 547.944 453.593 547.641C453.476 547.346 453.415 547.032 453.414 546.714C453.414 546.355 453.495 545.999 453.649 545.674C453.803 545.348 454.027 545.061 454.305 544.833C454.583 544.604 454.908 544.44 455.258 544.352C455.607 544.265 455.971 544.255 456.324 544.325L456.779 544.455L457.202 544.682C457.334 544.776 457.459 544.88 457.576 544.991C457.691 545.101 457.79 545.227 457.869 545.365C457.963 545.495 458.04 545.637 458.096 545.788C458.162 545.934 458.211 546.086 458.242 546.243C458.259 546.4 458.259 546.558 458.242 546.714C458.244 547.034 458.177 547.35 458.047 547.641C457.931 547.94 457.754 548.211 457.527 548.438C457.08 548.881 456.482 549.136 455.853 549.153Z" fill="white"/>
<path d="M453.382 486.823C453.384 486.501 453.45 486.183 453.575 485.887C453.701 485.591 453.884 485.323 454.113 485.097C454.343 484.872 454.615 484.695 454.914 484.575C455.212 484.456 455.531 484.396 455.853 484.401C456.5 484.401 457.12 484.657 457.577 485.115C458.035 485.572 458.292 486.192 458.292 486.839C458.292 487.486 458.035 488.106 457.577 488.564C457.12 489.021 456.5 489.278 455.853 489.278C455.529 489.282 455.207 489.222 454.906 489.1C454.605 488.978 454.332 488.798 454.102 488.569C453.872 488.341 453.689 488.069 453.566 487.769C453.442 487.469 453.38 487.147 453.382 486.823ZM453.382 426.948C453.382 426.301 453.639 425.68 454.096 425.223C454.553 424.766 455.174 424.509 455.82 424.509C456.467 424.509 457.087 424.766 457.545 425.223C458.002 425.68 458.259 426.301 458.259 426.948C458.259 427.594 458.002 428.215 457.545 428.672C457.087 429.129 456.467 429.386 455.82 429.386C455.174 429.386 454.553 429.129 454.096 428.672C453.639 428.215 453.382 427.594 453.382 426.948ZM453.382 367.056C453.382 366.409 453.639 365.789 454.096 365.332C454.553 364.874 455.174 364.617 455.82 364.617C456.467 364.617 457.087 364.874 457.545 365.332C458.002 365.789 458.259 366.409 458.259 367.056C458.259 367.703 458.002 368.323 457.545 368.78C457.087 369.237 456.467 369.494 455.82 369.494C455.5 369.494 455.183 369.431 454.887 369.309C454.591 369.186 454.323 369.007 454.096 368.78C453.87 368.554 453.69 368.285 453.567 367.989C453.445 367.693 453.382 367.376 453.382 367.056ZM453.382 307.164C453.382 306.517 453.639 305.897 454.096 305.44C454.553 304.983 455.174 304.726 455.82 304.726C456.467 304.726 457.087 304.983 457.545 305.44C458.002 305.897 458.259 306.517 458.259 307.164C458.259 307.811 458.002 308.431 457.545 308.889C457.087 309.346 456.467 309.603 455.82 309.603C455.179 309.603 454.564 309.35 454.108 308.9C453.651 308.45 453.39 307.838 453.382 307.197V307.164ZM453.382 247.289C453.382 246.642 453.639 246.022 454.096 245.564C454.553 245.107 455.174 244.85 455.82 244.85C456.467 244.85 457.087 245.107 457.545 245.564C458.002 246.022 458.259 246.642 458.259 247.289C458.259 247.936 458.002 248.556 457.545 249.013C457.087 249.47 456.467 249.727 455.82 249.727C455.5 249.727 455.183 249.664 454.887 249.542C454.591 249.419 454.323 249.24 454.096 249.013C453.87 248.787 453.69 248.518 453.567 248.222C453.445 247.926 453.382 247.609 453.382 247.289Z" fill="white"/>
<path d="M455.853 189.836C455.532 189.837 455.215 189.775 454.919 189.652C454.623 189.529 454.354 189.348 454.129 189.12C454.009 189.011 453.905 188.885 453.82 188.746C453.735 188.617 453.659 188.481 453.593 188.34C453.526 188.19 453.482 188.031 453.463 187.869C453.446 187.712 453.446 187.554 453.463 187.397C453.467 186.751 453.724 186.133 454.178 185.674C454.286 185.558 454.406 185.455 454.536 185.365C454.668 185.278 454.81 185.208 454.958 185.154C455.105 185.09 455.258 185.041 455.414 185.007C455.73 184.942 456.056 184.942 456.373 185.007C456.529 185.041 456.681 185.09 456.828 185.154C456.977 185.208 457.118 185.278 457.251 185.365C457.382 185.459 457.507 185.562 457.625 185.674C458.079 186.133 458.336 186.751 458.34 187.397C458.357 187.554 458.357 187.712 458.34 187.869C458.306 188.03 458.257 188.188 458.194 188.34C458.134 188.484 458.057 188.62 457.966 188.746C457.887 188.885 457.789 189.011 457.673 189.12C457.435 189.357 457.15 189.543 456.837 189.666C456.524 189.789 456.189 189.847 455.853 189.836Z" fill="white"/>
<path d="M569.458 187.397C569.458 186.75 569.715 186.13 570.172 185.673C570.63 185.215 571.25 184.959 571.897 184.959C572.544 184.959 573.164 185.215 573.621 185.673C574.079 186.13 574.335 186.75 574.335 187.397C574.335 188.044 574.079 188.664 573.621 189.121C573.164 189.579 572.544 189.836 571.897 189.836C571.25 189.836 570.63 189.579 570.172 189.121C569.715 188.664 569.458 188.044 569.458 187.397ZM511.42 187.397C511.42 186.75 511.677 186.13 512.134 185.673C512.592 185.215 513.212 184.959 513.859 184.959C514.505 184.959 515.126 185.215 515.583 185.673C516.04 186.13 516.297 186.75 516.297 187.397C516.297 188.044 516.04 188.664 515.583 189.121C515.126 189.579 514.505 189.836 513.859 189.836C513.212 189.836 512.592 189.579 512.134 189.121C511.677 188.664 511.42 188.044 511.42 187.397Z" fill="white"/>
<path d="M629.936 189.836C629.779 189.852 629.621 189.852 629.464 189.836L629.009 189.706L628.586 189.478C628.455 189.384 628.33 189.281 628.212 189.169C627.755 188.712 627.498 188.092 627.497 187.446C627.501 186.8 627.758 186.181 628.212 185.723C628.326 185.611 628.451 185.513 628.586 185.43C628.714 185.332 628.857 185.256 629.009 185.202C629.155 185.137 629.307 185.088 629.464 185.056C629.781 184.991 630.107 184.991 630.423 185.056L630.879 185.202C631.025 185.256 631.163 185.333 631.285 185.43C631.423 185.509 631.549 185.607 631.659 185.723C632.113 186.181 632.37 186.8 632.374 187.446C632.374 188.092 632.116 188.712 631.659 189.169C631.545 189.285 631.42 189.388 631.285 189.478C631.155 189.564 631.019 189.64 630.879 189.706L630.423 189.836C630.261 189.852 630.098 189.852 629.936 189.836Z" fill="white"/>
<path d="M627.497 486.823C627.497 486.176 627.754 485.556 628.211 485.099C628.669 484.641 629.289 484.384 629.936 484.384C630.582 484.384 631.203 484.641 631.66 485.099C632.117 485.556 632.374 486.176 632.374 486.823C632.374 487.47 632.117 488.09 631.66 488.547C631.203 489.005 630.582 489.261 629.936 489.261C629.289 489.261 628.669 489.005 628.211 488.547C627.754 488.09 627.497 487.47 627.497 486.823ZM627.497 426.948C627.497 426.301 627.754 425.68 628.211 425.223C628.669 424.766 629.289 424.509 629.936 424.509C630.582 424.509 631.203 424.766 631.66 425.223C632.117 425.68 632.374 426.301 632.374 426.948C632.374 427.594 632.117 428.215 631.66 428.672C631.203 429.129 630.582 429.386 629.936 429.386C629.289 429.386 628.669 429.129 628.211 428.672C627.754 428.215 627.497 427.594 627.497 426.948ZM627.497 367.056C627.497 366.409 627.754 365.789 628.211 365.332C628.669 364.874 629.289 364.617 629.936 364.617C630.582 364.617 631.203 364.874 631.66 365.332C632.117 365.789 632.374 366.409 632.374 367.056C632.374 367.703 632.117 368.323 631.66 368.78C631.203 369.237 630.582 369.494 629.936 369.494C629.615 369.494 629.298 369.431 629.002 369.309C628.707 369.186 628.438 369.007 628.211 368.78C627.985 368.554 627.805 368.285 627.683 367.989C627.56 367.693 627.497 367.376 627.497 367.056ZM627.497 307.164C627.497 306.517 627.754 305.897 628.211 305.44C628.669 304.983 629.289 304.726 629.936 304.726C630.582 304.726 631.203 304.983 631.66 305.44C632.117 305.897 632.374 306.517 632.374 307.164C632.374 307.811 632.117 308.431 631.66 308.889C631.203 309.346 630.582 309.603 629.936 309.603C629.294 309.603 628.679 309.35 628.223 308.9C627.766 308.45 627.506 307.838 627.497 307.197V307.164ZM627.497 247.289C627.497 246.642 627.754 246.022 628.211 245.564C628.669 245.107 629.289 244.85 629.936 244.85C630.582 244.85 631.203 245.107 631.66 245.564C632.117 246.022 632.374 246.642 632.374 247.289C632.374 247.936 632.117 248.556 631.66 249.013C631.203 249.47 630.582 249.727 629.936 249.727C629.615 249.727 629.298 249.664 629.002 249.542C628.707 249.419 628.438 249.24 628.211 249.013C627.985 248.787 627.805 248.518 627.683 248.222C627.56 247.926 627.497 247.609 627.497 247.289Z" fill="white"/>
<path d="M629.935 549.153C629.453 549.153 628.982 549.009 628.582 548.741C628.181 548.473 627.869 548.093 627.685 547.647C627.5 547.202 627.452 546.712 627.546 546.239C627.64 545.767 627.872 545.332 628.212 544.991C628.329 544.88 628.454 544.776 628.586 544.682L629.009 544.455L629.464 544.325C629.78 544.26 630.107 544.26 630.423 544.325L630.878 544.455C631.019 544.521 631.155 544.597 631.285 544.682C631.42 544.772 631.545 544.876 631.659 544.991C632.116 545.448 632.373 546.068 632.374 546.714C632.377 547.035 632.316 547.353 632.193 547.649C632.07 547.946 631.888 548.214 631.659 548.438C631.202 548.895 630.582 549.153 629.935 549.153Z" fill="white"/>
<path d="M90.0654 548.145H23.0693V548.552H90.0654V548.145Z" fill="#E0E0E0"/>
<path d="M226.626 544.894H159.435V545.3H226.626V544.894Z" fill="#E0E0E0"/>
<path d="M314.057 544.894H297.8V545.3H314.057V544.894Z" fill="#E0E0E0"/>
<path d="M151.567 558.777H76.377V559.184H151.567V558.777Z" fill="#E0E0E0"/>
<path d="M411.633 547.934H376.518V548.34H411.633V547.934Z" fill="#E0E0E0"/>
<path d="M471.509 547.934H426.103V548.34H471.509V547.934Z" fill="#E0E0E0"/>
<path d="M690.494 554.811H588.983V555.217H690.494V554.811Z" fill="#E0E0E0"/>
<path d="M315.082 53.0149H240.185L244.281 6.34033H319.162L315.082 53.0149Z" fill="#EBEBEB"/>
<path d="M316.593 0L314.545 24.3696L312.496 53.6651H240.477L244.573 0H316.593Z" fill="#FAFAFA"/>
<path d="M309.716 6.3403L313.797 53.0148H238.916L234.819 6.3403H241.192L243.403 2.82874H263.578L266.472 6.3403H309.716Z" fill="#E0E0E0"/>
<path d="M431.158 63.4357H351.465V143.129H431.158V63.4357Z" fill="#EBEBEB"/>
<path d="M433.19 63.4357H431.158V143.129H433.19V63.4357Z" fill="#E0E0E0"/>
<path d="M423.777 70.8165H358.813V135.78H423.777V70.8165Z" fill="#F5F5F5"/>
<path d="M359.432 70.8165H358.83V135.78H359.432V70.8165Z" fill="#E0E0E0"/>
<path d="M391.913 112.679C398.908 112.679 404.578 105.459 404.578 96.5517C404.578 87.6449 398.908 80.4246 391.913 80.4246C384.919 80.4246 379.249 87.6449 379.249 96.5517C379.249 105.459 384.919 112.679 391.913 112.679Z" fill="#E0E0E0"/>
<path d="M385.296 120.84H398.644V107.493H385.296V120.84Z" fill="#E0E0E0"/>
<path d="M415.974 135.78H367.072V131.228C367.072 127.072 368.723 123.086 371.662 120.147C374.602 117.208 378.588 115.556 382.744 115.556H400.367C404.524 115.556 408.51 117.208 411.449 120.147C414.388 123.086 416.039 127.072 416.039 131.228V135.78H415.974Z" fill="#E0E0E0"/>
<path d="M365.853 108.663C365.853 111.313 370.73 113.54 370.73 113.54C370.73 113.54 375.607 111.378 375.607 108.663C375.607 107.395 373.851 106.68 372.697 107.038C372.255 107.192 371.848 107.432 371.499 107.745C371.15 108.057 370.867 108.436 370.665 108.858C370.043 108.02 369.221 107.349 368.275 106.908C367.998 106.81 367.701 106.782 367.41 106.824C367.119 106.867 366.843 106.979 366.605 107.152C366.367 107.324 366.174 107.552 366.043 107.815C365.912 108.078 365.847 108.369 365.853 108.663Z" fill="#E0E0E0"/>
<path d="M409.13 96.8118C409.13 100.307 415.454 103.136 415.454 103.136C415.454 103.136 421.778 100.307 421.778 96.8118C421.778 95.1861 419.437 94.2269 417.958 94.6496C416.842 95.0953 415.944 95.9584 415.454 97.0557C414.629 95.9603 413.553 95.0793 412.316 94.487C411.95 94.3574 411.558 94.3189 411.173 94.3751C410.789 94.4312 410.424 94.5802 410.11 94.8092C409.796 95.0382 409.543 95.3402 409.372 95.6892C409.201 96.0381 409.118 96.4235 409.13 96.8118Z" fill="#E0E0E0"/>
<path d="M270.049 494.675C270.797 499.373 274.194 503.421 274.454 508.169C274.666 511.891 272.926 515.387 272.065 519.012C271.203 522.638 271.626 527.141 274.796 529.059C275.949 529.645 277.238 529.913 278.53 529.836C279.821 529.759 281.069 529.339 282.144 528.62C284.267 527.151 286.02 525.208 287.265 522.946C292.252 514.886 294.975 505.631 295.15 496.154C295.15 492.171 294.744 487.945 292.402 484.774C285.152 474.646 268.195 482.97 270.049 494.675Z" fill="#F5F5F5"/>
<path d="M264.017 482.238C264.717 483.002 265.628 483.54 266.635 483.783C267.244 483.981 267.893 484.021 268.522 483.898C269.15 483.776 269.737 483.496 270.228 483.084C270.601 482.604 270.867 482.049 271.007 481.457C271.147 480.865 271.159 480.25 271.04 479.653C270.941 478.156 270.429 476.716 269.561 475.492C269.125 474.888 268.547 474.402 267.877 474.075C267.208 473.749 266.468 473.593 265.724 473.622C264.982 473.683 264.282 473.997 263.744 474.512C263.205 475.027 262.86 475.712 262.765 476.451C262.585 478.462 263.021 480.481 264.017 482.238Z" fill="#F5F5F5"/>
<path d="M277.527 472.468C277.195 471.953 276.719 471.548 276.158 471.303C275.597 471.057 274.977 470.981 274.373 471.086C273.777 471.219 273.234 471.53 272.816 471.976C272.399 472.423 272.125 472.985 272.032 473.589C272.006 473.985 272.006 474.381 272.032 474.776C272.038 475.416 272.109 476.053 272.244 476.678C272.38 477.281 272.665 477.84 273.073 478.304C273.631 478.847 274.339 479.209 275.105 479.345C275.579 479.458 276.073 479.455 276.546 479.336C277.019 479.217 277.456 478.986 277.82 478.662C278.143 478.268 278.385 477.813 278.53 477.325C278.675 476.836 278.721 476.323 278.665 475.817C278.628 474.612 278.232 473.446 277.527 472.468Z" fill="#F5F5F5"/>
<path d="M285.055 472.061C284.788 471.571 284.354 471.192 283.832 470.995C283.31 470.798 282.734 470.796 282.21 470.988C281.698 471.201 281.247 471.536 280.896 471.964C280.544 472.392 280.303 472.9 280.194 473.443C280.194 473.801 280.096 474.158 280.08 474.516C280.07 475.107 280.136 475.697 280.275 476.272C280.392 476.838 280.688 477.351 281.121 477.735C281.582 478.121 282.148 478.359 282.746 478.418C283.136 478.466 283.531 478.428 283.905 478.307C284.278 478.186 284.621 477.986 284.908 477.719C285.54 477 285.887 476.075 285.884 475.118C285.955 474.035 285.663 472.959 285.055 472.061Z" fill="#F5F5F5"/>
<path d="M291.769 473.622C290.972 472.435 290.143 472.354 289.232 472.858C288.423 473.45 287.848 474.307 287.607 475.28C287.515 475.594 287.45 475.915 287.412 476.239C287.324 476.778 287.324 477.327 287.412 477.865C287.518 478.386 287.82 478.846 288.257 479.149C288.66 479.401 289.133 479.515 289.606 479.475C290.222 479.42 290.797 479.149 291.232 478.71C291.83 478.069 292.211 477.256 292.321 476.386C292.486 475.428 292.289 474.443 291.769 473.622Z" fill="#F5F5F5"/>
<path d="M293.085 480.206C292.996 480.591 292.996 480.992 293.085 481.377C293.118 481.574 293.199 481.761 293.321 481.919C293.443 482.078 293.602 482.204 293.784 482.287C294.116 482.363 294.464 482.338 294.782 482.217C295.1 482.095 295.375 481.882 295.573 481.604C296.053 481.112 296.405 480.509 296.597 479.849C296.692 479.519 296.719 479.173 296.677 478.832C296.635 478.491 296.525 478.162 296.353 477.865C294.906 475.508 293.28 479.036 293.085 480.206Z" fill="#F5F5F5"/>
<path d="M294.402 603.257C295.492 599.42 296.126 595.21 294.679 591.487C290.208 579.896 271.74 583.586 270.521 595.389L294.402 603.257Z" fill="#F5F5F5"/>
<path d="M267.952 581.83C268.435 582.749 269.182 583.503 270.098 583.992C270.634 584.339 271.25 584.544 271.887 584.586C272.524 584.629 273.162 584.509 273.74 584.236C274.215 583.863 274.605 583.393 274.885 582.858C275.166 582.323 275.329 581.734 275.365 581.131C275.652 579.663 275.529 578.144 275.008 576.742C274.738 576.042 274.301 575.419 273.734 574.929C273.167 574.438 272.487 574.095 271.756 573.929C271.025 573.799 270.272 573.924 269.621 574.282C268.97 574.639 268.462 575.209 268.18 575.896C267.507 577.806 267.427 579.875 267.952 581.83Z" fill="#F5F5F5"/>
<path d="M283.526 575.831C283.333 575.25 282.975 574.738 282.496 574.357C282.017 573.976 281.437 573.742 280.828 573.685C280.216 573.665 279.613 573.827 279.095 574.151C278.576 574.476 278.166 574.947 277.917 575.506C277.774 575.877 277.655 576.258 277.56 576.644C277.395 577.26 277.297 577.893 277.267 578.53C277.226 579.165 277.355 579.799 277.641 580.367C278.027 581.017 278.591 581.541 279.267 581.879C279.695 582.107 280.172 582.226 280.657 582.226C281.142 582.226 281.619 582.107 282.047 581.879C282.473 581.59 282.837 581.217 283.116 580.784C283.395 580.351 283.585 579.867 283.673 579.359C283.964 578.194 283.913 576.969 283.526 575.831Z" fill="#F5F5F5"/>
<path d="M290.842 577.376C290.709 576.84 290.392 576.369 289.946 576.045C289.5 575.721 288.953 575.564 288.403 575.604C287.853 575.683 287.33 575.894 286.88 576.22C286.43 576.545 286.066 576.976 285.818 577.473C285.672 577.797 285.541 578.128 285.428 578.465C285.245 579.017 285.136 579.591 285.103 580.172C285.071 580.745 285.219 581.313 285.526 581.798C285.886 582.307 286.398 582.688 286.989 582.887C287.354 583.035 287.748 583.1 288.141 583.077C288.535 583.055 288.919 582.945 289.265 582.757C290.063 582.233 290.641 581.435 290.891 580.513C291.22 579.491 291.203 578.388 290.842 577.376Z" fill="#F5F5F5"/>
<path d="M296.922 580.611C296.467 579.245 295.605 578.985 294.679 579.213C293.731 579.565 292.938 580.238 292.435 581.115C292.273 581.399 292.126 581.692 291.996 581.993C291.797 582.48 291.676 582.996 291.638 583.521C291.607 584.045 291.776 584.562 292.11 584.968C292.432 585.318 292.86 585.552 293.329 585.634C293.938 585.753 294.569 585.643 295.101 585.325C295.834 584.854 296.402 584.167 296.727 583.358C297.124 582.497 297.193 581.52 296.922 580.611Z" fill="#F5F5F5"/>
<path d="M296.532 587.309C296.333 587.651 296.216 588.035 296.191 588.431C296.175 588.629 296.206 588.828 296.282 589.012C296.359 589.196 296.478 589.359 296.63 589.487C296.93 589.646 297.272 589.712 297.61 589.678C297.949 589.643 298.269 589.509 298.532 589.292C299.12 588.936 299.616 588.446 299.979 587.862C300.154 587.566 300.269 587.238 300.317 586.898C300.364 586.557 300.343 586.211 300.255 585.878C299.41 583.228 297.052 586.252 296.532 587.309Z" fill="#F5F5F5"/>
<path d="M230.317 534.245C230.918 538.976 228.691 543.805 229.829 548.438C230.658 552.063 233.308 554.941 235.129 558.192C236.95 561.444 237.811 565.866 235.275 568.597C234.333 569.482 233.172 570.1 231.912 570.386C230.651 570.671 229.337 570.615 228.106 570.223C225.659 569.384 223.435 567.999 221.603 566.174C214.581 559.811 209.404 551.674 206.614 542.618C205.443 538.797 204.728 534.619 206.093 530.864C210.369 519.175 228.87 522.491 230.317 534.245Z" fill="#F5F5F5"/>
<path d="M232.608 520.654C232.152 521.578 231.426 522.343 230.527 522.849C230 523.212 229.387 523.432 228.749 523.489C228.111 523.546 227.47 523.438 226.886 523.174C226.391 522.818 225.979 522.359 225.679 521.829C225.378 521.298 225.197 520.709 225.146 520.101C224.833 518.636 224.923 517.114 225.406 515.696C225.669 514.987 226.104 514.355 226.672 513.855C227.239 513.356 227.922 513.005 228.658 512.834C229.387 512.687 230.144 512.793 230.804 513.137C231.464 513.48 231.986 514.039 232.283 514.72C232.738 516.232 233.307 519.175 232.608 520.654Z" fill="#F5F5F5"/>
<path d="M216.985 514.98C217.164 514.394 217.51 513.873 217.981 513.48C218.451 513.088 219.026 512.841 219.635 512.769C220.246 512.738 220.853 512.89 221.377 513.206C221.901 513.522 222.319 513.987 222.578 514.541C222.735 514.905 222.865 515.28 222.968 515.663C223.143 516.273 223.252 516.9 223.293 517.533C223.352 518.17 223.234 518.811 222.951 519.386C222.59 520.083 222.022 520.651 221.326 521.012C220.907 521.257 220.435 521.396 219.95 521.416C219.465 521.436 218.983 521.336 218.546 521.126C218.121 520.838 217.759 520.468 217.479 520.038C217.2 519.608 217.01 519.127 216.92 518.622C216.567 517.43 216.59 516.159 216.985 514.98Z" fill="#F5F5F5"/>
<path d="M209.637 516.671C209.756 516.125 210.069 515.641 210.517 515.306C210.965 514.972 211.518 514.81 212.075 514.85C212.625 514.918 213.15 515.117 213.606 515.431C214.062 515.745 214.434 516.165 214.693 516.655C214.849 516.977 214.985 517.308 215.099 517.647C215.298 518.197 215.424 518.771 215.473 519.354C215.506 519.924 215.364 520.491 215.067 520.979C214.72 521.495 214.219 521.888 213.636 522.101C213.274 522.258 212.883 522.331 212.489 522.317C212.095 522.303 211.709 522.202 211.36 522.02C210.565 521.507 209.986 520.72 209.734 519.809C209.357 518.802 209.323 517.699 209.637 516.671Z" fill="#F5F5F5"/>
<path d="M203.622 520.036C204.061 518.671 204.906 518.411 205.849 518.59C206.803 518.927 207.609 519.589 208.125 520.459C208.296 520.736 208.448 521.024 208.581 521.321C208.799 521.798 208.931 522.31 208.971 522.833C209.022 523.359 208.864 523.885 208.532 524.296C208.217 524.65 207.794 524.89 207.329 524.979C206.721 525.113 206.085 525.02 205.541 524.718C204.786 524.265 204.19 523.589 203.834 522.784C203.433 521.924 203.358 520.948 203.622 520.036Z" fill="#F5F5F5"/>
<path d="M204.174 526.669C204.376 527.013 204.503 527.395 204.548 527.791C204.566 527.991 204.537 528.191 204.464 528.378C204.391 528.564 204.275 528.731 204.126 528.864C203.824 529.025 203.483 529.095 203.142 529.066C202.802 529.037 202.477 528.911 202.207 528.701C201.612 528.363 201.109 527.883 200.744 527.303C200.559 527.012 200.437 526.685 200.384 526.344C200.33 526.003 200.348 525.654 200.435 525.32C201.199 522.703 203.622 525.678 204.174 526.669Z" fill="#F5F5F5"/>
<path d="M190.421 143.958C186.679 144.484 182.866 143.888 179.463 142.247C176.06 140.606 173.22 137.992 171.303 134.737C169.385 131.482 168.476 127.731 168.69 123.959C168.904 120.186 170.232 116.563 172.506 113.545C174.78 110.528 177.897 108.253 181.464 107.007C185.031 105.762 188.887 105.602 192.545 106.548C196.203 107.494 199.498 109.504 202.014 112.323C204.529 115.141 206.152 118.643 206.678 122.384C207.374 127.4 206.053 132.486 203.006 136.53C199.959 140.573 195.433 143.244 190.421 143.958ZM186.552 116.158C184.796 116.4 183.152 117.157 181.827 118.334C180.502 119.511 179.555 121.054 179.108 122.768C178.66 124.483 178.731 126.292 179.311 127.966C179.892 129.64 180.956 131.105 182.369 132.174C183.782 133.244 185.48 133.87 187.249 133.974C189.018 134.078 190.779 133.655 192.307 132.758C193.836 131.862 195.064 130.532 195.836 128.937C196.609 127.342 196.891 125.554 196.647 123.799C196.316 121.449 195.069 119.326 193.177 117.894C191.285 116.463 188.903 115.838 186.552 116.158Z" fill="#E0E0E0"/>
<path d="M183.26 68.0577L176.079 69.0605L182.53 115.254L189.711 114.251L183.26 68.0577Z" fill="#E0E0E0"/>
<path d="M189.335 61.6285L175.863 63.5336L176.878 70.7118L190.35 68.8068L189.335 61.6285Z" fill="#E0E0E0"/>
<path d="M190.442 71.3942L177.771 73.1616L178.772 80.3428L191.444 78.5755L190.442 71.3942Z" fill="#E0E0E0"/>
<path d="M192.289 84.4126L181.228 85.9554L182.229 93.1367L193.291 91.5939L192.289 84.4126Z" fill="#E0E0E0"/>
<path d="M342.052 630.049C516.139 630.049 657.264 621.81 657.264 611.646C657.264 601.482 516.139 593.243 342.052 593.243C167.966 593.243 26.8408 601.482 26.8408 611.646C26.8408 621.81 167.966 630.049 342.052 630.049Z" fill="#F5F5F5"/>
<path d="M175.367 306.02C190.355 290.363 188.657 264.413 171.573 248.059C154.489 231.705 128.49 231.139 113.502 246.796C98.5136 262.453 100.212 288.403 117.296 304.757C134.38 321.111 160.379 321.676 175.367 306.02Z" fill="#407BFF"/>
<g opacity="0.8">
<path d="M175.367 306.02C190.355 290.363 188.657 264.413 171.573 248.059C154.489 231.705 128.49 231.139 113.502 246.796C98.5136 262.453 100.212 288.403 117.296 304.757C134.38 321.111 160.379 321.676 175.367 306.02Z" fill="white"/>
</g>
<path d="M125.327 250.687C124.986 250.687 124.653 250.579 124.376 250.38C124.1 250.18 123.892 249.899 123.785 249.575C123.677 249.251 123.673 248.902 123.775 248.576C123.877 248.25 124.078 247.965 124.351 247.76C129.826 243.831 136.424 241.778 143.161 241.908C143.592 241.908 144.006 242.079 144.311 242.384C144.616 242.689 144.787 243.102 144.787 243.533C144.787 243.965 144.616 244.378 144.311 244.683C144.006 244.988 143.592 245.159 143.161 245.159C137.127 245.026 131.212 246.851 126.302 250.361C126.021 250.572 125.679 250.687 125.327 250.687Z" fill="#407BFF"/>
<path d="M133.017 306.611C132.75 306.61 132.488 306.543 132.253 306.416C127.271 303.752 122.948 300.007 119.6 295.456C116.253 290.904 113.966 285.662 112.907 280.112C111.874 275.312 111.922 270.341 113.046 265.561C114.171 260.781 116.345 256.311 119.41 252.475C119.686 252.143 120.082 251.934 120.512 251.894C120.942 251.855 121.37 251.988 121.702 252.264C122.034 252.539 122.243 252.936 122.283 253.366C122.322 253.796 122.189 254.224 121.913 254.556C119.145 258.028 117.184 262.074 116.174 266.399C115.165 270.724 115.132 275.22 116.077 279.559C117.051 284.633 119.144 289.425 122.204 293.587C125.264 297.749 129.213 301.177 133.765 303.62C134.083 303.792 134.335 304.064 134.48 304.395C134.626 304.725 134.658 305.095 134.57 305.445C134.482 305.795 134.281 306.107 133.997 306.33C133.712 306.553 133.362 306.675 133.001 306.676L133.017 306.611Z" fill="#407BFF"/>
<path d="M149.29 310.855C145.651 310.839 142.037 310.257 138.577 309.131C138.373 309.065 138.184 308.959 138.021 308.82C137.858 308.681 137.724 308.511 137.626 308.32C137.529 308.129 137.47 307.921 137.453 307.707C137.436 307.494 137.462 307.279 137.528 307.075C137.594 306.871 137.7 306.682 137.839 306.519C137.978 306.356 138.148 306.222 138.339 306.125C138.53 306.027 138.738 305.968 138.952 305.952C139.166 305.935 139.381 305.96 139.585 306.026C149.583 309.278 159.565 307.457 166.962 301.149C170.714 297.837 173.55 293.614 175.196 288.887C176.842 284.16 177.242 279.089 176.358 274.162C176.289 273.731 176.395 273.29 176.651 272.936C176.907 272.583 177.293 272.345 177.724 272.276C178.155 272.207 178.596 272.312 178.95 272.568C179.303 272.825 179.541 273.211 179.61 273.642C180.595 279.116 180.148 284.753 178.31 290.003C176.473 295.253 173.308 299.939 169.124 303.604C163.611 308.346 156.562 310.923 149.29 310.855Z" fill="#407BFF"/>
<path d="M176.635 270C176.29 269.999 175.955 269.888 175.677 269.683C175.4 269.479 175.194 269.191 175.091 268.862C173.595 264.246 171.147 259.995 167.904 256.385C164.661 252.775 160.695 249.886 156.265 247.907C155.868 247.734 155.556 247.411 155.398 247.009C155.239 246.606 155.247 246.157 155.419 245.761C155.592 245.364 155.915 245.052 156.317 244.894C156.72 244.735 157.169 244.743 157.565 244.915C162.417 247.084 166.76 250.249 170.311 254.203C173.862 258.158 176.543 262.814 178.18 267.87C178.313 268.28 178.278 268.726 178.083 269.11C177.888 269.494 177.549 269.785 177.139 269.919C176.975 269.968 176.806 269.996 176.635 270Z" fill="#407BFF"/>
<path d="M151.013 246.069C150.889 246.086 150.764 246.086 150.64 246.069C148.193 245.5 145.689 245.211 143.177 245.208C142.746 245.208 142.333 245.037 142.028 244.732C141.723 244.427 141.552 244.013 141.552 243.582C141.552 243.151 141.723 242.737 142.028 242.433C142.333 242.128 142.746 241.956 143.177 241.956C145.915 241.965 148.642 242.287 151.306 242.916C151.737 242.965 152.131 243.184 152.401 243.524C152.671 243.864 152.794 244.297 152.745 244.728C152.695 245.159 152.476 245.553 152.136 245.823C151.797 246.093 151.363 246.217 150.932 246.167L151.013 246.069Z" fill="#407BFF"/>
<path d="M122.336 284.908C122.003 284.909 121.679 284.808 121.406 284.619C121.133 284.431 120.924 284.162 120.807 283.851C119.284 279.918 118.748 275.67 119.246 271.481C119.745 267.292 121.264 263.289 123.669 259.823C125.942 256.54 128.987 253.865 132.536 252.034C136.085 250.203 140.03 249.271 144.023 249.321C144.454 249.321 144.867 249.492 145.172 249.797C145.477 250.102 145.649 250.515 145.649 250.947C145.649 251.378 145.477 251.791 145.172 252.096C144.867 252.401 144.454 252.572 144.023 252.572C140.553 252.532 137.126 253.34 134.041 254.927C130.955 256.513 128.304 258.831 126.319 261.676C124.21 264.729 122.883 268.252 122.455 271.937C122.027 275.623 122.511 279.357 123.864 282.811C124.011 283.214 123.993 283.659 123.813 284.049C123.633 284.439 123.307 284.742 122.905 284.892C122.717 284.928 122.525 284.934 122.336 284.908Z" fill="#407BFF"/>
<path d="M148.12 303.474C143.247 303.311 138.485 301.974 134.24 299.577C129.994 297.179 126.39 293.792 123.734 289.704C123.537 289.345 123.482 288.924 123.582 288.527C123.681 288.129 123.927 287.784 124.27 287.56C124.614 287.336 125.029 287.25 125.433 287.319C125.837 287.388 126.2 287.607 126.449 287.932C128.81 291.569 132.012 294.585 135.783 296.724C139.555 298.863 143.787 300.063 148.12 300.222C148.551 300.222 148.965 300.394 149.269 300.699C149.574 301.003 149.746 301.417 149.746 301.848C149.746 302.279 149.574 302.693 149.269 302.998C148.965 303.303 148.551 303.474 148.12 303.474Z" fill="#407BFF"/>
<path d="M154.2 302.775C153.829 302.786 153.465 302.669 153.169 302.444C152.873 302.219 152.663 301.9 152.574 301.539C152.471 301.121 152.538 300.679 152.761 300.31C152.983 299.941 153.343 299.676 153.761 299.572C166.946 296.321 170.36 284.762 169.271 275.885C167.856 264.31 158.72 252.589 143.974 252.572C143.543 252.572 143.13 252.401 142.825 252.096C142.52 251.791 142.349 251.378 142.349 250.947C142.349 250.515 142.52 250.102 142.825 249.797C143.13 249.492 143.543 249.321 143.974 249.321C160.606 249.321 170.913 262.489 172.506 275.495C174.132 288.907 167.092 299.605 154.542 302.726C154.43 302.754 154.315 302.771 154.2 302.775Z" fill="#407BFF"/>
<path d="M137.374 261.546C137.066 261.544 136.765 261.454 136.506 261.287C136.247 261.12 136.04 260.883 135.911 260.603C135.728 260.213 135.707 259.766 135.853 259.361C136 258.955 136.301 258.625 136.691 258.441C139.184 257.339 141.883 256.784 144.609 256.816C145.04 256.816 145.453 256.987 145.758 257.292C146.063 257.597 146.234 258.01 146.234 258.441C146.234 258.872 146.063 259.286 145.758 259.591C145.453 259.896 145.04 260.067 144.609 260.067C142.365 260.068 140.147 260.551 138.106 261.481C137.87 261.559 137.62 261.581 137.374 261.546Z" fill="#407BFF"/>
<path d="M147.827 295.898C143.71 295.832 139.697 294.587 136.266 292.311C132.834 290.035 130.127 286.822 128.465 283.055C125.099 275.723 126.091 268.066 131.115 262.538C131.406 262.222 131.811 262.034 132.241 262.016C132.67 261.998 133.09 262.15 133.407 262.441C133.723 262.732 133.911 263.137 133.929 263.567C133.947 263.996 133.795 264.416 133.504 264.733C131.484 267.018 130.204 269.861 129.833 272.888C129.461 275.915 130.016 278.984 131.424 281.689C132.86 284.973 135.23 287.762 138.239 289.71C141.248 291.658 144.763 292.679 148.347 292.647C151.059 292.627 153.707 291.823 155.971 290.331C158.236 288.84 160.02 286.725 161.109 284.242C162.334 281.312 162.703 278.095 162.173 274.965C161.644 271.834 160.238 268.918 158.118 266.554C157.979 266.391 157.874 266.203 157.808 266C157.741 265.797 157.716 265.583 157.733 265.37C157.749 265.158 157.808 264.95 157.904 264.76C158.001 264.57 158.134 264.4 158.297 264.261C158.459 264.123 158.647 264.017 158.85 263.951C159.053 263.885 159.267 263.859 159.48 263.876C159.693 263.893 159.9 263.951 160.091 264.048C160.281 264.145 160.45 264.278 160.589 264.44C163.113 267.271 164.781 270.76 165.399 274.501C166.018 278.242 165.562 282.082 164.084 285.575C162.75 288.621 160.565 291.218 157.79 293.052C155.016 294.886 151.771 295.88 148.445 295.914L147.827 295.898Z" fill="#407BFF"/>
<path d="M154.671 262.977C154.365 262.979 154.064 262.888 153.81 262.717C151.065 260.95 147.873 260.003 144.608 259.986C144.177 259.986 143.763 259.814 143.459 259.51C143.154 259.205 142.982 258.791 142.982 258.36C142.982 257.929 143.154 257.515 143.459 257.21C143.763 256.906 144.177 256.734 144.608 256.734C148.491 256.749 152.289 257.877 155.549 259.986C155.844 260.176 156.069 260.456 156.191 260.785C156.313 261.113 156.326 261.473 156.227 261.809C156.128 262.145 155.924 262.441 155.643 262.651C155.363 262.862 155.022 262.976 154.671 262.977Z" fill="#407BFF"/>
<path d="M146.965 288.566C145.065 288.553 143.192 288.124 141.476 287.31C139.76 286.495 138.243 285.315 137.032 283.851C135.469 282.063 134.454 279.863 134.109 277.513C133.763 275.164 134.1 272.764 135.081 270.602C135.956 268.639 137.389 266.976 139.201 265.82C141.013 264.664 143.125 264.065 145.274 264.099C145.705 264.099 146.119 264.27 146.424 264.575C146.729 264.88 146.9 265.293 146.9 265.725C146.9 266.156 146.729 266.569 146.424 266.874C146.119 267.179 145.705 267.35 145.274 267.35C143.754 267.322 142.259 267.74 140.973 268.552C139.688 269.364 138.668 270.534 138.04 271.919C137.325 273.515 137.084 275.284 137.347 277.013C137.609 278.742 138.363 280.36 139.519 281.673C140.67 283.083 142.198 284.138 143.925 284.713C145.652 285.289 147.507 285.362 149.274 284.924C150.711 284.601 152.025 283.871 153.06 282.822C154.095 281.773 154.806 280.449 155.11 279.007C155.203 278.587 155.459 278.221 155.822 277.989C156.184 277.758 156.624 277.679 157.044 277.771C157.254 277.816 157.453 277.901 157.629 278.022C157.805 278.144 157.956 278.299 158.072 278.478C158.189 278.658 158.268 278.859 158.307 279.07C158.345 279.28 158.342 279.496 158.296 279.706C157.866 281.74 156.863 283.609 155.405 285.093C153.948 286.576 152.097 287.612 150.07 288.078C149.058 288.364 148.016 288.528 146.965 288.566Z" fill="#407BFF"/>
<path d="M156.427 275.69C156.069 275.707 155.715 275.604 155.421 275.398C155.127 275.192 154.909 274.895 154.802 274.552C154.153 272.515 152.885 270.731 151.174 269.449C149.464 268.167 147.396 267.45 145.259 267.399C144.827 267.399 144.414 267.228 144.109 266.923C143.804 266.618 143.633 266.204 143.633 265.773C143.633 265.342 143.804 264.929 144.109 264.624C144.414 264.319 144.827 264.148 145.259 264.148C148.085 264.211 150.822 265.152 153.089 266.842C155.355 268.532 157.039 270.886 157.907 273.577C157.972 273.781 157.997 273.995 157.979 274.209C157.962 274.422 157.902 274.63 157.804 274.821C157.706 275.011 157.571 275.18 157.407 275.318C157.244 275.456 157.054 275.561 156.85 275.625C156.713 275.665 156.57 275.687 156.427 275.69Z" fill="#407BFF"/>
<path d="M147.404 281.803C146.973 281.803 146.559 281.632 146.254 281.327C145.949 281.022 145.778 280.608 145.778 280.177C145.778 279.746 145.949 279.332 146.254 279.028C146.559 278.723 146.973 278.551 147.404 278.551C147.626 278.552 147.846 278.507 148.049 278.419C148.253 278.331 148.437 278.203 148.589 278.041C148.742 277.88 148.859 277.689 148.935 277.48C149.011 277.272 149.043 277.05 149.03 276.828C149.038 276.512 148.984 276.197 148.87 275.901C148.756 275.606 148.584 275.336 148.364 275.108C148.145 274.879 147.883 274.697 147.592 274.571C147.302 274.445 146.989 274.378 146.672 274.373C146.434 274.38 146.199 274.433 145.981 274.531C145.764 274.629 145.568 274.768 145.404 274.942C145.238 275.139 145.112 275.367 145.034 275.612C144.955 275.858 144.927 276.116 144.949 276.373C144.962 276.586 144.933 276.8 144.863 277.003C144.793 277.205 144.684 277.391 144.542 277.551C144.4 277.711 144.228 277.842 144.036 277.935C143.843 278.029 143.634 278.083 143.421 278.096C143.207 278.109 142.993 278.08 142.791 278.01C142.589 277.94 142.403 277.831 142.243 277.689C142.083 277.547 141.952 277.375 141.859 277.183C141.765 276.99 141.71 276.782 141.698 276.568C141.64 275.886 141.722 275.199 141.939 274.55C142.157 273.901 142.504 273.302 142.961 272.792C143.418 272.282 143.974 271.871 144.595 271.584C145.217 271.297 145.89 271.139 146.575 271.122C147.319 271.124 148.055 271.274 148.741 271.562C149.427 271.851 150.049 272.273 150.571 272.804C151.092 273.335 151.504 273.964 151.78 274.654C152.057 275.345 152.194 276.084 152.184 276.828C152.197 277.477 152.08 278.122 151.841 278.725C151.601 279.328 151.244 279.877 150.79 280.34C150.336 280.803 149.794 281.171 149.196 281.423C148.597 281.674 147.955 281.803 147.306 281.803H147.404Z" fill="#407BFF"/>
<path d="M189.234 276.389C191.218 299.036 174.456 317.39 151.843 317.39H150.087C171.644 316.284 187.3 298.369 185.381 276.438C184.273 265.703 179.405 255.706 171.637 248.215C163.869 240.723 153.702 236.22 142.934 235.502C143.503 235.502 144.088 235.502 144.673 235.502C167.352 235.405 187.316 253.759 189.234 276.389Z" fill="#407BFF"/>
<g opacity="0.4">
<path d="M189.234 276.389C191.218 299.036 174.456 317.39 151.843 317.39H150.087C171.644 316.284 187.3 298.369 185.381 276.438C184.273 265.703 179.405 255.706 171.637 248.215C163.869 240.723 153.702 236.22 142.934 235.502C143.503 235.502 144.088 235.502 144.673 235.502C167.352 235.405 187.316 253.759 189.234 276.389Z" fill="white"/>
</g>
<path d="M222.432 76.5716C222.472 77.0569 222.537 77.5399 222.627 78.0185C223.24 81.1508 224.848 84.0016 227.212 86.1471C229.889 88.6544 233.411 90.0644 237.08 90.0976H374.437C376.04 90.1299 377.634 89.8431 379.126 89.2539C380.617 88.6646 381.976 87.7846 383.125 86.6651C384.273 85.5456 385.187 84.2089 385.814 82.7329C386.441 81.2568 386.768 79.6709 386.776 78.0672C386.8 77.5852 386.8 77.1023 386.776 76.6203C386.393 72.9803 384.696 69.605 382.002 67.1269C379.309 64.6488 375.804 63.2382 372.145 63.1593H234.755C233.033 63.1245 231.323 63.4565 229.738 64.1333C228.154 64.81 226.732 65.8161 225.567 67.0846C224.401 68.3531 223.519 69.8551 222.978 71.4908C222.438 73.1264 222.252 74.8584 222.432 76.5716Z" fill="#407BFF"/>
<path opacity="0.8" d="M222.432 76.5716C222.472 77.0569 222.537 77.5399 222.627 78.0185C223.24 81.1508 224.848 84.0016 227.212 86.1471C229.889 88.6544 233.411 90.0644 237.08 90.0976H374.437C376.04 90.1299 377.634 89.8431 379.126 89.2539C380.617 88.6646 381.976 87.7846 383.125 86.6651C384.273 85.5456 385.187 84.2089 385.814 82.7329C386.441 81.2568 386.768 79.6709 386.776 78.0672C386.8 77.5852 386.8 77.1023 386.776 76.6203C386.393 72.9803 384.696 69.605 382.002 67.1269C379.309 64.6488 375.804 63.2382 372.145 63.1593H234.755C233.033 63.1245 231.323 63.4565 229.738 64.1333C228.154 64.81 226.732 65.8161 225.567 67.0846C224.401 68.3531 223.519 69.8551 222.978 71.4908C222.438 73.1264 222.252 74.8584 222.432 76.5716Z" fill="white"/>
<path d="M386.777 77.9698C386.777 78.4051 386.744 78.8399 386.679 79.2703C386.194 75.7128 384.453 72.446 381.769 70.0606C379.086 67.6752 375.637 66.3287 372.048 66.2646L226.009 66.5897C227.167 65.4635 228.535 64.5766 230.036 63.9797C231.537 63.3827 233.14 63.0874 234.755 63.1106H372.113C375.772 63.1895 379.277 64.6001 381.97 67.0782C384.664 69.5563 386.361 72.9317 386.744 76.5716C386.777 77.0369 386.788 77.5035 386.777 77.9698Z" fill="#407BFF"/>
<path opacity="0.5" d="M386.777 77.9698C386.777 78.4051 386.744 78.8399 386.679 79.2703C386.194 75.7128 384.453 72.446 381.769 70.0606C379.086 67.6752 375.637 66.3287 372.048 66.2646L226.009 66.5897C227.167 65.4635 228.535 64.5766 230.036 63.9797C231.537 63.3827 233.14 63.0874 234.755 63.1106H372.113C375.772 63.1895 379.277 64.6001 381.97 67.0782C384.664 69.5563 386.361 72.9317 386.744 76.5716C386.777 77.0369 386.788 77.5035 386.777 77.9698Z" fill="white"/>
<path d="M363.187 69.6135L363.772 76.1164L369.885 73.8404L371.332 77.0918L365.089 79.1728L369.576 84.684L366.764 86.7486L362.391 81.0261L359.139 86.7486L356.066 84.684L359.529 79.1728L353.026 77.0918L353.904 73.8404L360.488 76.0351L359.903 69.5322L363.187 69.6135Z" fill="#407BFF"/>
<path d="M325.551 69.6136L326.136 76.1165L332.249 73.8405L333.712 77.0919L327.421 79.2216L331.908 84.7328L329.111 86.7975L324.738 81.0749L321.487 86.7975L318.398 84.7328L321.877 79.2216L315.374 77.1407L316.252 73.8892L322.836 76.0839L322.267 69.5811L325.551 69.6136Z" fill="#407BFF"/>
<path d="M287.997 69.6136L288.566 76.1165L294.679 73.8405L296.142 77.0919L289.883 79.1728L294.37 84.684L291.655 86.7975L287.282 81.0749L284.031 86.7975L280.958 84.7328L284.421 79.2216L277.918 77.1407L278.812 73.8892L285.315 76.0839L284.746 69.5811L287.997 69.6136Z" fill="#407BFF"/>
<path d="M250.426 69.6135L250.995 76.1164L257.124 73.8404L258.571 77.0918L252.312 79.1728L256.816 84.684L254.003 86.7486L249.63 81.0261L246.378 86.7486L243.306 84.684L246.769 79.1728L240.266 77.0918L241.144 73.8404L247.646 76.0351L247.077 69.5322L250.426 69.6135Z" fill="#407BFF"/>
<path d="M341.483 56.7378H335.078V58.3635H341.483V56.7378Z" fill="#407BFF"/>
<path d="M369.007 56.7378H348.116V58.3635H369.007V56.7378Z" fill="#407BFF"/>
<path opacity="0.8" d="M582.318 117.377L575.668 193.396C575.412 195.822 574.28 198.072 572.485 199.724C570.689 201.376 568.353 202.316 565.914 202.37H513.127C511.984 202.376 510.853 202.142 509.808 201.681C508.762 201.221 507.825 200.545 507.058 199.699C506.291 198.852 505.711 197.853 505.356 196.767C505.001 195.681 504.879 194.532 504.998 193.396L511.647 117.361C511.894 114.931 513.022 112.675 514.82 111.021C516.618 109.367 518.959 108.43 521.402 108.387H574.189C575.333 108.381 576.465 108.616 577.512 109.077C578.559 109.538 579.497 110.215 580.264 111.064C581.032 111.912 581.611 112.913 581.965 114.001C582.319 115.089 582.439 116.24 582.318 117.377Z" fill="#407BFF"/>
<path opacity="0.8" d="M582.318 117.377L575.668 193.396C575.412 195.822 574.28 198.072 572.485 199.724C570.689 201.376 568.353 202.316 565.914 202.37H513.127C511.984 202.376 510.853 202.142 509.808 201.681C508.762 201.221 507.825 200.545 507.058 199.699C506.291 198.852 505.711 197.853 505.356 196.767C505.001 195.681 504.879 194.532 504.998 193.396L511.647 117.361C511.894 114.931 513.022 112.675 514.82 111.021C516.618 109.367 518.959 108.43 521.402 108.387H574.189C575.333 108.381 576.465 108.616 577.512 109.077C578.559 109.538 579.497 110.215 580.264 111.064C581.032 111.912 581.611 112.913 581.965 114.001C582.319 115.089 582.439 116.24 582.318 117.377Z" fill="white"/>
<path d="M516.46 129.635H516.313C515.884 129.598 515.488 129.392 515.211 129.063C514.933 128.734 514.798 128.308 514.834 127.879L515.452 120.921C515.488 120.516 515.676 120.139 515.977 119.865C516.278 119.591 516.67 119.44 517.077 119.442H524.426C524.857 119.442 525.27 119.613 525.575 119.918C525.88 120.223 526.051 120.636 526.051 121.068C526.051 121.499 525.88 121.912 525.575 122.217C525.27 122.522 524.857 122.693 524.426 122.693H518.573L518.085 128.156C518.049 128.561 517.861 128.938 517.56 129.212C517.259 129.486 516.867 129.637 516.46 129.635Z" fill="#407BFF"/>
<path d="M575.571 129.635H575.425C574.996 129.598 574.599 129.392 574.322 129.063C574.045 128.734 573.909 128.308 573.945 127.879L574.401 122.693H568.841C568.409 122.693 567.996 122.522 567.691 122.217C567.386 121.912 567.215 121.499 567.215 121.068C567.215 120.636 567.386 120.223 567.691 119.918C567.996 119.613 568.409 119.442 568.841 119.442H576.156C576.383 119.441 576.607 119.487 576.814 119.578C577.022 119.669 577.208 119.802 577.361 119.969C577.514 120.135 577.63 120.332 577.703 120.547C577.775 120.761 577.802 120.988 577.782 121.214L577.164 128.156C577.128 128.556 576.946 128.928 576.651 129.201C576.357 129.474 575.972 129.629 575.571 129.635Z" fill="#407BFF"/>
<path d="M519.255 182.097H511.907C511.684 182.097 511.464 182.05 511.26 181.961C511.056 181.871 510.872 181.741 510.72 181.577C510.568 181.412 510.452 181.216 510.38 181.004C510.307 180.791 510.279 180.566 510.298 180.342L510.899 173.383C510.936 172.952 511.142 172.553 511.473 172.274C511.804 171.995 512.232 171.859 512.663 171.896C513.094 171.933 513.493 172.139 513.772 172.47C514.051 172.801 514.187 173.229 514.151 173.66L513.695 178.846H519.255C519.687 178.846 520.1 179.017 520.405 179.322C520.71 179.627 520.881 180.04 520.881 180.472C520.881 180.903 520.71 181.316 520.405 181.621C520.1 181.926 519.687 182.097 519.255 182.097Z" fill="#407BFF"/>
<path d="M570.97 182.097H563.638C563.207 182.097 562.794 181.926 562.489 181.621C562.184 181.316 562.013 180.903 562.013 180.472C562.013 180.04 562.184 179.627 562.489 179.322C562.794 179.017 563.207 178.846 563.638 178.846H569.491L569.963 173.383C570 172.955 570.205 172.558 570.535 172.281C570.864 172.003 571.289 171.868 571.718 171.904C572.147 171.941 572.544 172.147 572.821 172.476C573.098 172.805 573.234 173.231 573.198 173.66L572.596 180.618C572.56 181.023 572.372 181.4 572.071 181.674C571.77 181.948 571.377 182.099 570.97 182.097Z" fill="#407BFF"/>
<path d="M565.375 155.885C569.045 141.653 562.745 127.723 551.303 124.773C539.862 121.822 527.611 130.968 523.941 145.201C520.271 159.433 526.571 173.363 538.013 176.313C549.454 179.263 561.705 170.118 565.375 155.885Z" fill="white"/>
<path d="M551.038 191.006H529.985L531.822 169.953H552.876L551.038 191.006Z" fill="white"/>
<path d="M575.668 193.396C575.412 195.822 574.28 198.072 572.485 199.724C570.689 201.376 568.353 202.316 565.914 202.37H513.127C511.984 202.376 510.853 202.142 509.808 201.681C508.762 201.221 507.825 200.545 507.058 199.699C506.291 198.852 505.711 197.853 505.356 196.767C505.001 195.681 504.879 194.532 504.998 193.396C504.998 193.396 529.254 185.723 532.245 185.723H550.99L575.668 193.396Z" fill="white"/>
<path d="M585.383 139.593L582.923 169.454L584.543 169.588L587.003 139.727L585.383 139.593Z" fill="#407BFF"/>
<path d="M587.094 125.929L586.61 131.794L588.231 131.928L588.714 126.063L587.094 125.929Z" fill="#407BFF"/>
<path d="M530.441 307.311H524.035V308.936H530.441V307.311Z" fill="#407BFF"/>
<path d="M557.964 307.311H537.073V308.936H557.964V307.311Z" fill="#407BFF"/>
<path d="M596.201 279.559L592.153 325.893C591.943 327.94 590.99 329.84 589.474 331.233C587.958 332.626 585.985 333.415 583.927 333.452C582.958 333.469 581.997 333.28 581.108 332.897C580.218 332.514 579.42 331.947 578.766 331.232C578.113 330.517 577.619 329.671 577.317 328.75C577.016 327.83 576.914 326.856 577.018 325.893L581.033 279.559C581.407 276.104 581.042 272.608 579.962 269.304C578.882 266.001 577.111 262.964 574.768 260.397C572.425 257.829 569.563 255.789 566.372 254.412C563.18 253.035 559.732 252.353 556.257 252.41H539.74C532.352 252.55 525.271 255.388 519.833 260.389C514.394 265.391 510.974 272.21 510.217 279.559L508.591 298.483H493.472L495.097 279.559C497.13 256.247 517.76 237.291 541.057 237.291H557.639C563.049 237.201 568.417 238.264 573.385 240.408C578.354 242.552 582.809 245.728 586.456 249.725C590.103 253.723 592.858 258.45 594.538 263.594C596.218 268.738 596.785 274.18 596.201 279.559Z" fill="#407BFF"/>
<g opacity="0.5">
<path d="M596.201 279.559L592.153 325.893C591.943 327.94 590.99 329.84 589.474 331.233C587.958 332.626 585.985 333.415 583.927 333.452C582.958 333.469 581.997 333.28 581.108 332.897C580.218 332.514 579.42 331.947 578.766 331.232C578.113 330.517 577.619 329.671 577.317 328.75C577.016 327.83 576.914 326.856 577.018 325.893L581.033 279.559C581.407 276.104 581.042 272.608 579.962 269.304C578.882 266.001 577.111 262.964 574.768 260.397C572.425 257.829 569.563 255.789 566.372 254.412C563.18 253.035 559.732 252.353 556.257 252.41H539.74C532.352 252.55 525.271 255.388 519.833 260.389C514.394 265.391 510.974 272.21 510.217 279.559L508.591 298.483H493.472L495.097 279.559C497.13 256.247 517.76 237.291 541.057 237.291H557.639C563.049 237.201 568.417 238.264 573.385 240.408C578.354 242.552 582.809 245.728 586.456 249.725C590.103 253.723 592.858 258.45 594.538 263.594C596.218 268.738 596.785 274.18 596.201 279.559Z" fill="white"/>
</g>
<path d="M597.29 324.202L589.406 414.494C589.119 417.294 587.816 419.891 585.742 421.794C583.669 423.697 580.969 424.773 578.156 424.818H487.863C486.54 424.842 485.228 424.584 484.013 424.061C482.798 423.538 481.708 422.763 480.816 421.786C479.924 420.81 479.25 419.654 478.84 418.397C478.429 417.14 478.29 415.809 478.434 414.494L486.335 324.202C486.516 322.402 487.121 320.67 488.098 319.147C489.076 317.624 490.399 316.354 491.96 315.439C493.655 314.401 495.598 313.84 497.585 313.813H587.861C589.706 313.803 591.515 314.316 593.08 315.293C594.54 316.24 595.708 317.575 596.452 319.149C597.195 320.722 597.486 322.472 597.29 324.202Z" fill="#407BFF"/>
<path d="M503.405 363.642L526.864 399.749L604.233 322.381C604.352 322.237 604.416 322.056 604.414 321.869C604.411 321.682 604.341 321.503 604.217 321.363C604.093 321.224 603.923 321.133 603.738 321.108C603.553 321.083 603.365 321.125 603.208 321.227L529.482 379.021L515.549 356.57L503.405 363.642Z" fill="white"/>
<path d="M133.959 189.023H75.1406C72.4191 188.973 69.8099 187.929 67.806 186.087C65.8021 184.245 64.5423 181.732 64.2645 179.025L59.176 120.238C59.0348 118.965 59.1667 117.677 59.5629 116.459C59.9591 115.241 60.6105 114.122 61.4736 113.175C62.3368 112.229 63.3918 111.478 64.5683 110.972C65.7448 110.466 67.0158 110.216 68.2963 110.24H127.05C129.761 110.302 132.357 111.352 134.348 113.193C136.339 115.035 137.588 117.54 137.861 120.238L142.998 178.992C143.144 180.261 143.017 181.546 142.628 182.762C142.239 183.978 141.596 185.097 140.741 186.046C139.886 186.995 138.84 187.751 137.67 188.264C136.501 188.777 135.236 189.036 133.959 189.023Z" fill="#407BFF"/>
<path opacity="0.8" d="M133.959 189.023H75.1406C72.4191 188.973 69.8099 187.929 67.806 186.087C65.8021 184.245 64.5423 181.732 64.2645 179.025L59.176 120.238C59.0348 118.965 59.1667 117.677 59.5629 116.459C59.9591 115.241 60.6105 114.122 61.4736 113.175C62.3368 112.229 63.3918 111.478 64.5683 110.972C65.7448 110.466 67.0158 110.216 68.2963 110.24H127.05C129.761 110.302 132.357 111.352 134.348 113.193C136.339 115.035 137.588 117.54 137.861 120.238L142.998 178.992C143.144 180.261 143.017 181.546 142.628 182.762C142.239 183.978 141.596 185.097 140.741 186.046C139.886 186.995 138.84 187.751 137.67 188.264C136.501 188.777 135.236 189.036 133.959 189.023Z" fill="white"/>
<path d="M64.2969 155.565C64.2969 155.565 85.1874 126.481 100.567 127.229C115.946 127.977 141.502 154.866 141.502 154.866C141.502 154.866 103.834 174.651 64.2969 155.565Z" fill="white"/>
<path d="M64.9633 156.004L63.6465 155.061C64.4919 153.875 84.407 126.367 99.9814 126.367H100.615C116.157 127.115 141.031 153.159 142.088 154.265L140.917 155.387C140.657 155.126 115.426 128.708 100.534 127.993H99.9814C85.1873 128.026 65.1584 155.761 64.9633 156.004Z" fill="#263238"/>
<path d="M62.135 156.59C58.9811 156.59 54.8843 155.419 53.4374 150.965C53.3707 150.76 53.388 150.537 53.4856 150.345C53.5831 150.153 53.7529 150.007 53.9576 149.94C54.0589 149.905 54.1663 149.891 54.2733 149.898C54.3804 149.905 54.4849 149.934 54.5805 149.982C54.6762 150.031 54.761 150.098 54.83 150.181C54.8989 150.263 54.9506 150.358 54.9818 150.461C56.8514 156.216 63.842 154.834 64.1347 154.769C64.3455 154.73 64.5632 154.774 64.742 154.893C64.9208 155.011 65.0469 155.194 65.0938 155.403C65.1152 155.507 65.1157 155.615 65.0954 155.72C65.0751 155.825 65.0344 155.925 64.9755 156.014C64.9166 156.103 64.8408 156.179 64.7523 156.239C64.6638 156.299 64.5644 156.341 64.4598 156.362C63.6941 156.513 62.9155 156.59 62.135 156.59Z" fill="#263238"/>
<path d="M74.5388 144.104C74.3574 144.108 74.18 144.05 74.0349 143.941C73.791 143.746 68.0197 139.292 66.5565 134.756C66.4899 134.551 66.5072 134.328 66.6047 134.136C66.7023 133.944 66.872 133.799 67.0768 133.732C67.2816 133.67 67.5026 133.689 67.6936 133.786C67.8845 133.883 68.0305 134.05 68.101 134.252C69.4178 138.3 74.9615 142.608 75.0265 142.641C75.1965 142.773 75.3073 142.966 75.3348 143.18C75.3622 143.393 75.304 143.608 75.1729 143.779C75.0988 143.878 75.0032 143.958 74.8934 144.015C74.7835 144.071 74.6623 144.102 74.5388 144.104Z" fill="#263238"/>
<path d="M86.4722 133.033C86.2594 133.021 86.059 132.928 85.9113 132.775C85.7635 132.621 85.6794 132.417 85.6756 132.204C84.7263 128.663 83.5478 125.187 82.1478 121.799C81.7414 120.726 81.4487 119.946 81.3837 119.751C81.3514 119.647 81.34 119.538 81.3504 119.43C81.3608 119.322 81.3927 119.218 81.4442 119.122C81.4957 119.027 81.5658 118.942 81.6503 118.875C81.7349 118.807 81.8322 118.756 81.9365 118.726C82.0389 118.697 82.1463 118.687 82.2524 118.699C82.3585 118.71 82.4613 118.743 82.5549 118.794C82.6485 118.845 82.7311 118.915 82.7979 118.998C82.8647 119.081 82.9145 119.177 82.9444 119.279C82.9444 119.474 83.2858 120.19 83.6597 121.214C85.9357 127.18 87.3339 131.098 87.3014 132.236C87.3014 132.344 87.2798 132.45 87.2378 132.549C87.1957 132.648 87.1341 132.737 87.0566 132.811C86.9792 132.886 86.8875 132.944 86.7871 132.982C86.6866 133.02 86.5795 133.037 86.4722 133.033Z" fill="#263238"/>
<path d="M100.567 128.042C100.365 128.036 100.171 127.956 100.022 127.819C99.8728 127.682 99.7779 127.496 99.7546 127.294L98.6166 114.288C98.5972 114.073 98.6642 113.858 98.8029 113.692C98.9416 113.526 99.1407 113.422 99.3563 113.402C99.5718 113.383 99.7863 113.45 99.9525 113.589C100.119 113.727 100.223 113.926 100.242 114.142L101.38 127.245C101.394 127.458 101.326 127.667 101.19 127.83C101.054 127.994 100.86 128.099 100.649 128.123L100.567 128.042Z" fill="#263238"/>
<path d="M143.941 155.696C143.146 155.699 142.352 155.634 141.567 155.5C141.463 155.479 141.363 155.437 141.275 155.378C141.186 155.318 141.111 155.241 141.052 155.152C140.993 155.063 140.952 154.963 140.932 154.858C140.912 154.754 140.912 154.646 140.933 154.541C140.951 154.436 140.989 154.336 141.047 154.246C141.104 154.157 141.18 154.08 141.268 154.021C141.356 153.961 141.456 153.921 141.56 153.901C141.665 153.882 141.773 153.884 141.876 153.907C141.876 153.907 145.859 154.671 148.298 152.948C148.82 152.568 149.255 152.082 149.574 151.522C149.894 150.961 150.09 150.339 150.151 149.697C150.167 149.59 150.204 149.487 150.26 149.395C150.315 149.302 150.389 149.222 150.476 149.158C150.562 149.093 150.661 149.047 150.766 149.021C150.87 148.995 150.979 148.99 151.086 149.006C151.193 149.022 151.295 149.059 151.388 149.114C151.48 149.17 151.561 149.243 151.625 149.33C151.689 149.417 151.736 149.515 151.762 149.62C151.788 149.725 151.793 149.834 151.777 149.94C151.679 150.796 151.402 151.621 150.966 152.363C150.529 153.105 149.941 153.748 149.241 154.249C147.661 155.256 145.813 155.76 143.941 155.696Z" fill="#263238"/>
<path d="M129.342 143.242C129.228 143.243 129.114 143.219 129.01 143.171C128.906 143.123 128.814 143.053 128.74 142.966C128.664 142.89 128.604 142.801 128.563 142.702C128.521 142.602 128.5 142.496 128.5 142.389C128.5 142.282 128.521 142.175 128.563 142.076C128.604 141.977 128.664 141.887 128.74 141.812C128.74 141.812 133.618 137.52 134.138 133.521C134.174 133.309 134.291 133.12 134.463 132.992C134.636 132.865 134.852 132.81 135.065 132.838C135.17 132.854 135.272 132.89 135.363 132.945C135.455 133.001 135.535 133.073 135.598 133.159C135.662 133.246 135.707 133.343 135.733 133.447C135.759 133.551 135.763 133.659 135.747 133.764C135.065 138.349 130.025 142.836 129.813 143.031C129.686 143.155 129.519 143.23 129.342 143.242Z" fill="#263238"/>
<path d="M115.605 133.797H115.459C115.247 133.757 115.059 133.637 114.934 133.461C114.81 133.285 114.759 133.067 114.792 132.854C114.792 132.757 116.58 122.303 116.906 120.157C116.922 120.05 116.958 119.948 117.014 119.855C117.07 119.763 117.143 119.682 117.23 119.618C117.317 119.554 117.415 119.508 117.52 119.481C117.625 119.455 117.734 119.45 117.84 119.466C117.947 119.482 118.05 119.519 118.142 119.575C118.235 119.63 118.315 119.704 118.379 119.791C118.444 119.877 118.49 119.976 118.516 120.081C118.542 120.185 118.547 120.294 118.531 120.401C118.206 122.563 116.434 133.033 116.418 133.13C116.383 133.32 116.283 133.491 116.134 133.613C115.985 133.735 115.798 133.8 115.605 133.797Z" fill="#263238"/>
<path d="M116.082 158.971C122.813 151.94 122.043 140.282 114.364 132.93C106.685 125.579 95.0037 125.319 88.2733 132.35C81.543 139.38 82.3122 151.039 89.9914 158.391C97.6706 165.742 109.352 166.002 116.082 158.971Z" fill="#407BFF"/>
<path opacity="0.3" d="M109.801 145.649C109.825 145.237 109.825 144.824 109.801 144.413C109.583 142.293 108.595 140.327 107.026 138.886C105.456 137.446 103.413 136.63 101.282 136.593C100.281 136.576 99.2875 136.772 98.3677 137.168C97.448 137.564 96.6231 138.152 95.948 138.891C95.2729 139.631 94.763 140.506 94.4522 141.458C94.1414 142.41 94.0368 143.417 94.1454 144.413C94.1724 144.832 94.2487 145.247 94.373 145.649H83.7733C83.5142 143.304 83.7577 140.932 84.4875 138.689C85.2173 136.446 86.4166 134.385 88.0057 132.642C89.5947 130.899 91.5369 129.515 93.7029 128.581C95.8689 127.648 98.2089 127.187 100.567 127.229C105.581 127.322 110.388 129.246 114.081 132.639C117.774 136.033 120.097 140.66 120.612 145.649H109.801Z" fill="black"/>
<path opacity="0.7" d="M109.785 144.413C109.809 144.824 109.809 145.237 109.785 145.649C109.668 147.458 108.857 149.153 107.522 150.38C106.186 151.606 104.428 152.27 102.615 152.233C100.704 152.197 98.8582 151.533 97.3624 150.343C95.8667 149.152 94.8046 147.503 94.3405 145.649C94.2162 145.247 94.1398 144.832 94.1129 144.413C94.0043 143.417 94.1089 142.41 94.4197 141.458C94.7305 140.506 95.2404 139.631 95.9155 138.891C96.5906 138.152 97.4155 137.564 98.3352 137.168C99.255 136.772 100.249 136.576 101.25 136.593C103.383 136.626 105.43 137.44 107.003 138.881C108.577 140.322 109.566 142.291 109.785 144.413Z" fill="black"/>
<path opacity="0.7" d="M114.028 136.739C114.116 137.551 114.03 138.372 113.776 139.148C113.522 139.923 113.106 140.636 112.556 141.239C112.005 141.842 111.333 142.321 110.583 142.644C109.834 142.966 109.024 143.126 108.208 143.112C106.475 143.078 104.814 142.411 103.539 141.237C102.263 140.063 101.46 138.464 101.282 136.739C101.192 135.927 101.276 135.105 101.529 134.329C101.782 133.552 102.197 132.838 102.748 132.234C103.299 131.631 103.973 131.152 104.724 130.83C105.475 130.508 106.286 130.35 107.102 130.367C108.837 130.398 110.499 131.063 111.776 132.238C113.052 133.412 113.853 135.014 114.028 136.739Z" fill="white"/>
<path d="M88.8614 102.973H82.4561V104.599H88.8614V102.973Z" fill="#407BFF"/>
<path d="M116.386 102.973H95.4951V104.599H116.386V102.973Z" fill="#407BFF"/>
<path d="M384.321 222.09L384.874 222.757L385.622 223.618C386.158 224.187 386.678 224.789 387.247 225.342C388.369 226.512 389.588 227.65 390.824 228.804C393.293 231.081 395.881 233.225 398.579 235.226C401.326 237.274 404.22 239.144 407.114 240.997C408.739 241.875 410.073 242.802 411.601 243.647L415.129 245.598C415.641 245.824 416.218 245.859 416.754 245.696C417.892 245.354 424.428 238.884 426.509 236.478C431.126 231.194 438.116 224.236 441.888 218.318L446.099 224.122C443.437 231.372 439.905 238.273 435.58 244.671C433.255 248.131 430.465 251.254 427.289 253.954C425.383 255.56 423.231 256.85 420.916 257.775C417.982 258.946 414.759 259.19 411.682 258.474C410.886 258.28 410.109 258.019 409.357 257.693L407.894 257.059L405.26 255.856C403.488 255.076 401.781 254.133 400.058 253.271C396.613 251.433 393.27 249.409 390.044 247.208C386.792 244.971 383.671 242.55 380.696 239.957C379.151 238.607 377.769 237.242 376.355 235.762C375.656 235.031 374.941 234.267 374.258 233.47L373.25 232.235C372.876 231.779 372.6 231.438 372.096 230.739L384.321 222.09Z" fill="#FFB573"/>
<path d="M441.222 219.213L448.765 203.085L455.967 215.994C455.967 215.994 451.236 224.122 446.099 224.122L441.222 219.213Z" fill="#FFB573"/>
<path d="M457.316 196.387L464.925 206.174L456.032 215.977L448.83 203.085L457.316 196.387Z" fill="#FFB573"/>
<path d="M454.666 220.432H466.648C466.986 220.429 467.311 220.302 467.56 220.073C467.809 219.845 467.965 219.533 467.997 219.196L470.485 190.47C470.503 190.282 470.481 190.092 470.422 189.913C470.362 189.734 470.266 189.57 470.138 189.43C470.011 189.291 469.856 189.18 469.683 189.104C469.511 189.028 469.324 188.989 469.135 188.99H457.17C456.829 188.993 456.502 189.123 456.253 189.355C456.003 189.586 455.849 189.903 455.821 190.242L453.301 218.952C453.285 219.141 453.309 219.331 453.37 219.51C453.432 219.689 453.53 219.853 453.658 219.993C453.786 220.132 453.942 220.243 454.116 220.318C454.29 220.394 454.477 220.433 454.666 220.432Z" fill="#407BFF"/>
<path opacity="0.3" d="M454.797 217.554H466.795L469.038 191.884H457.04L454.797 217.554Z" fill="white"/>
<path d="M454.016 213.913L456.146 212.823C457.23 212.272 458.231 211.572 459.121 210.743L459.511 209.328C459.284 208.952 458.941 208.658 458.534 208.491C458.127 208.324 457.677 208.293 457.251 208.402L455.479 208.889L446.684 209.556L446.473 213.262L449.041 217.229H449.919C450.887 217.264 451.835 216.947 452.588 216.337C453.341 215.728 453.848 214.867 454.016 213.913Z" fill="#FFB573"/>
<path d="M368.975 206.402C375.071 205.296 418.071 242.574 418.071 242.574L405.326 261.27C405.326 261.27 358.31 228.528 359.805 220.627C361.252 212.32 360.098 208.028 368.975 206.402Z" fill="#263238"/>
<path opacity="0.2" d="M374.404 218.318L373.933 237.827C378.81 241.615 396.433 255.125 396.433 255.125L374.404 218.318Z" fill="black"/>
<path d="M340.313 593.828L354.734 595.242L359.318 561.801L344.882 560.387L340.313 593.828Z" fill="#FFB573"/>
<path d="M198.339 397.603L194.648 411.649L225.846 425.094L232.316 410.837L198.339 397.603Z" fill="#FFB573"/>
<path d="M365.056 598.201C366.297 598.354 367.553 598.078 368.617 597.421C368.846 597.221 369.025 596.969 369.138 596.687C369.251 596.404 369.296 596.098 369.267 595.795C369.267 595.605 369.215 595.419 369.118 595.256C369.021 595.093 368.881 594.959 368.714 594.869C366.975 593.828 361.09 596.624 360.423 596.933C360.359 596.963 360.306 597.012 360.272 597.073C360.237 597.134 360.221 597.204 360.228 597.275C360.237 597.346 360.269 597.413 360.319 597.466C360.368 597.519 360.433 597.554 360.504 597.567C361.999 597.917 363.523 598.129 365.056 598.201ZM367.674 595.291C367.9 595.274 368.127 595.325 368.324 595.437C368.393 595.473 368.45 595.527 368.49 595.593C368.53 595.659 368.552 595.734 368.552 595.811C368.569 596.015 368.539 596.219 368.462 596.408C368.386 596.598 368.266 596.766 368.113 596.901C367.219 597.665 364.861 597.73 361.61 597.112C363.527 596.154 365.595 595.533 367.723 595.275L367.674 595.291Z" fill="#407BFF"/>
<path d="M360.57 597.502H360.7C362.456 596.771 365.984 593.747 365.756 592.089C365.692 591.8 365.532 591.543 365.301 591.359C365.07 591.176 364.783 591.077 364.488 591.081C364.149 591.018 363.801 591.029 363.467 591.113C363.133 591.197 362.822 591.352 362.553 591.568C360.684 593.015 360.245 596.933 360.212 597.08C360.197 597.139 360.196 597.201 360.21 597.26C360.225 597.32 360.253 597.375 360.294 597.421C360.331 597.453 360.376 597.477 360.423 597.491C360.471 597.505 360.521 597.509 360.57 597.502ZM364.163 591.698H364.358C364.992 591.796 365.024 592.04 365.024 592.121C365.171 593.113 362.765 595.519 360.96 596.478C361.133 594.83 361.828 593.281 362.943 592.056C363.305 591.795 363.754 591.684 364.195 591.747L364.163 591.698Z" fill="#407BFF"/>
<path d="M354.018 589.422L341.013 589.975C340.732 589.978 340.463 590.084 340.256 590.273C340.049 590.462 339.919 590.72 339.891 590.999L336.769 609.159C336.752 609.467 336.796 609.777 336.898 610.068C337.001 610.36 337.161 610.629 337.368 610.859C337.575 611.088 337.825 611.275 338.105 611.407C338.385 611.539 338.688 611.615 338.997 611.63H339.257C344.931 611.337 347.662 610.914 354.847 610.671C359.253 610.524 372.73 612.117 378.746 610.752C384.761 609.386 383.623 603.42 381.038 603.469C372.682 603.631 363.041 598.185 358.278 591.812C357.449 591.276 354.929 589.374 354.018 589.422Z" fill="#263238"/>
<path d="M201.281 413.487L207.914 402.22C208.064 401.982 208.119 401.696 208.068 401.418C208.017 401.141 207.863 400.894 207.638 400.725L194.112 388.255C193.609 387.901 192.988 387.756 192.38 387.854C191.773 387.951 191.227 388.282 190.86 388.776L190.714 389.003C187.885 393.88 186.763 396.449 183.073 402.61C180.797 406.398 172.116 416.917 170.067 422.656C168.019 428.394 173.579 430.784 174.944 428.541C179.35 421.42 189.153 416.283 197.119 415.665C197.883 415.372 200.826 414.283 201.281 413.487Z" fill="#263238"/>
<path opacity="0.2" d="M359.318 561.801L356.961 579.05L342.524 577.636L344.865 560.403L359.318 561.801Z" fill="black"/>
<path opacity="0.2" d="M241.908 414.316L235.242 429.354L215.148 420.477L220.269 406.155L241.908 414.316Z" fill="black"/>
<path d="M378.192 223.553C386.435 237.567 376.355 249.386 367.934 291.265L313.602 291.411C314.48 268.846 314.383 250.605 304.758 206.207C304.508 205.113 304.509 203.977 304.76 202.883C305.011 201.789 305.506 200.766 306.208 199.891C306.91 199.015 307.801 198.31 308.814 197.827C309.827 197.344 310.936 197.097 312.058 197.103C316.545 197.103 322.186 197.249 327.925 197.834C336.977 198.575 345.966 199.938 354.831 201.915C359.638 203.074 364.363 204.552 368.974 206.337C371.771 207.28 375.136 214.888 378.192 223.553Z" fill="#263238"/>
<path d="M369.95 294.093C369.95 294.093 400.464 382.321 399.733 424.753C399.31 449.057 397.473 494.35 390.141 526.198C384.158 552.209 359.773 568.792 359.773 568.792L340.264 567.638C340.264 567.638 329.697 527.97 331.534 512.184C335.192 480.759 346.035 457.153 344.718 428.297C342.637 381.053 328.656 293.362 328.656 293.362L369.95 294.093Z" fill="#407BFF"/>
<path d="M336.346 572.726L363.902 574.352L366.405 566.077L335.614 563.232L336.346 572.726Z" fill="#263238"/>
<path opacity="0.2" d="M339.825 472.338C339.825 472.338 339.825 472.175 339.988 472.191C357.302 473.817 369.251 448.895 366.406 414.771L357.22 327.795L339.825 472.338Z" fill="black"/>
<path d="M356.261 293.362C356.261 293.362 380.517 448.505 330.087 465.965C303.474 476.044 281.088 465.119 254.572 453.382C239.242 446.603 220.091 428.248 220.091 428.248L227.455 408.203C240.701 404.621 254.56 403.922 268.098 406.154C293.947 410.154 295.037 417.535 304.222 411.958C323.536 364.227 290.306 326.494 312.887 293.281L356.261 293.362Z" fill="#407BFF"/>
<path d="M228.903 404.399L219.051 430.394L226.302 435.938L238.007 405L228.903 404.399Z" fill="#263238"/>
<path d="M224.838 264.213C222.383 267.838 209.93 265.383 209.93 265.383L207.28 249.955L222.578 256.084L224.838 264.213Z" fill="#FFB573"/>
<path d="M210.369 249.158L212.742 265.188L203.557 266.554C203.059 266.599 202.562 266.458 202.163 266.157C201.763 265.857 201.489 265.419 201.395 264.928L197.867 253.548C197.807 253.283 197.851 253.005 197.99 252.772C198.13 252.539 198.353 252.369 198.615 252.296L210.369 249.158Z" fill="#FFB573"/>
<path d="M206.256 256.425L211.491 257.352L216.45 253.629L214.531 252.264C213.231 251.338 212.317 249.967 211.963 248.411C211.594 246.781 211.371 245.121 211.296 243.452V242.899C211.234 242.409 211.012 241.953 210.666 241.601C210.319 241.248 209.867 241.019 209.378 240.948L208.077 241.908C207.264 243.68 207.849 245.744 207.752 247.126L207.541 249.809L205.443 250.719L206.256 256.425Z" fill="#FFB573"/>
<path d="M307.376 203.15L276.617 245.419L220.123 256.572V265.838C220.123 265.838 273.219 269.773 285.152 262.831C297.085 255.889 317.097 213.783 317.097 213.783L307.376 203.15Z" fill="#FFB573"/>
<path d="M307.019 121.864C294.11 117.54 279.137 125.555 273.236 137.813C267.335 150.071 269.399 165.109 276.049 176.976C278.048 180.569 280.438 183.951 282.08 187.706C283.905 191.429 284.304 195.691 283.202 199.688C281.869 203.573 280.503 206.061 275.691 205.443C275.691 205.443 275.691 202.777 277.528 203.102C277.528 203.102 273.626 205.264 272.098 203.85C273.87 206.581 278.601 205.589 280.113 202.695C282.373 198.387 278.211 192.551 273.334 192.6C268.456 192.648 264.49 197.59 264.652 202.451C264.856 204.883 265.721 207.212 267.154 209.186C268.586 211.161 270.533 212.705 272.781 213.653C271.463 213.87 270.111 213.645 268.934 213.012C267.758 212.38 266.824 211.376 266.278 210.157C268.489 215.945 275.707 218.497 281.804 217.359C287.9 216.221 293.054 212.32 297.833 208.369C304.336 203.037 310.985 196.29 310.839 187.95C310.693 181.723 306.693 176.375 303.328 171.124C299.963 165.873 297.02 159.467 299.166 153.631C300.971 148.672 305.881 145.681 310.205 142.657C313.326 140.495 319.667 135.667 318.919 131.098C318.155 126.741 310.677 123.084 307.019 121.864Z" fill="#263238"/>
<path d="M277.934 266.554L269.415 244.005L271.366 244.167C272.944 244.3 274.527 243.975 275.926 243.231C277.324 242.487 278.478 241.356 279.251 239.973C285.754 228.398 302.547 199.021 307.278 197.558C314.025 195.558 320.967 200.956 323.535 208.938C325.47 214.807 305.652 239.973 296.516 254.279C288.403 266.944 277.934 266.554 277.934 266.554Z" fill="#263238"/>
<path d="M194.843 420.9V421.079C194.963 421.391 195.16 421.669 195.416 421.885C195.672 422.101 195.978 422.249 196.307 422.314C196.504 422.376 196.713 422.386 196.916 422.344C197.118 422.301 197.306 422.207 197.461 422.07C198.826 420.819 197.949 415.567 197.867 415.047C197.858 414.98 197.828 414.917 197.782 414.867C197.735 414.818 197.674 414.784 197.607 414.771C197.544 414.763 197.48 414.771 197.42 414.793C197.361 414.816 197.308 414.853 197.266 414.901C196.16 416.462 194.404 419.242 194.843 420.9ZM197.347 416.023C197.64 418.104 197.77 420.9 197.006 421.583C196.926 421.627 196.837 421.65 196.746 421.65C196.655 421.65 196.565 421.627 196.485 421.583C196.267 421.542 196.063 421.446 195.892 421.303C195.721 421.161 195.59 420.977 195.51 420.77C195.217 419.892 195.835 418.104 197.347 415.99V416.023Z" fill="#407BFF"/>
<path d="M197.363 415.73C197.786 417.486 199.444 420.477 200.907 420.835C201.174 420.888 201.451 420.85 201.693 420.726C201.935 420.602 202.128 420.4 202.24 420.152C202.367 419.92 202.442 419.663 202.459 419.399C202.476 419.135 202.434 418.87 202.338 418.624C201.671 416.608 197.834 414.95 197.672 414.868C197.619 414.84 197.561 414.825 197.501 414.825C197.441 414.825 197.383 414.84 197.33 414.868C197.283 414.907 197.246 414.957 197.223 415.014C197.2 415.071 197.192 415.133 197.2 415.194C197.24 415.376 197.295 415.556 197.363 415.73ZM201.785 418.982C201.818 419.125 201.822 419.274 201.797 419.419C201.772 419.564 201.718 419.703 201.639 419.827C201.427 420.217 201.216 420.217 201.053 420.185C200.062 419.989 198.55 417.535 198.062 415.828C199.314 416.462 201.313 417.648 201.736 418.884C201.725 418.916 201.725 418.95 201.736 418.982H201.785Z" fill="#407BFF"/>
<path d="M313.407 288.664L311.895 293.947C311.7 294.354 312.171 294.776 312.854 294.76H368.942C369.478 294.76 369.917 294.484 369.95 294.158L370.47 288.875C370.47 288.517 370.047 288.192 369.462 288.208H314.35C314.166 288.194 313.983 288.229 313.817 288.309C313.651 288.389 313.51 288.511 313.407 288.664Z" fill="#407BFF"/>
<path opacity="0.5" d="M313.407 288.664L311.895 293.947C311.7 294.354 312.171 294.776 312.854 294.76H368.942C369.478 294.76 369.917 294.484 369.95 294.158L370.47 288.875C370.47 288.517 370.047 288.192 369.462 288.208H314.35C314.166 288.194 313.983 288.229 313.817 288.309C313.651 288.389 313.51 288.511 313.407 288.664Z" fill="white"/>
<path d="M324.17 295.248H322.544C322.235 295.248 321.975 295.085 322.008 294.89L322.739 288.013C322.739 287.818 323.048 287.656 323.373 287.656H324.999C325.308 287.656 325.552 287.818 325.535 288.029L324.804 294.89C324.706 295.085 324.414 295.264 324.17 295.248Z" fill="#407BFF"/>
<path d="M364.601 295.248H362.975C362.683 295.248 362.422 295.085 362.455 294.89L363.186 288.029C363.186 287.818 363.479 287.656 363.788 287.656H365.414C365.723 287.656 365.983 287.818 365.95 288.013L365.219 294.874C365.186 295.085 364.926 295.248 364.601 295.248Z" fill="#407BFF"/>
<path d="M346.052 295.215H344.426C344.117 295.215 343.857 295.053 343.889 294.858L344.621 287.997C344.621 287.786 344.93 287.623 345.239 287.623H346.865C347.173 287.623 347.417 287.786 347.401 287.981L346.653 294.841C346.653 295.053 346.377 295.215 346.052 295.215Z" fill="#407BFF"/>
<path d="M330.461 168.246C332.185 177.106 333.876 193.104 327.86 197.916C327.86 197.916 330.266 207.003 346.345 209.426C364.098 212.092 354.782 201.98 354.782 201.98C345.109 198.16 345.353 191.169 347.011 184.731L330.461 168.246Z" fill="#FFB573"/>
<path d="M327.925 197.834C336.504 198.378 345.03 199.563 353.433 201.378L365.593 205.004C367.755 209.361 364.211 218.318 354.034 220.025C354.034 220.025 328.397 223.553 320.837 197.151L327.925 197.834Z" fill="#FFB573"/>
<path opacity="0.2" d="M337.176 174.993L346.93 184.747C346.519 186.258 346.252 187.804 346.134 189.364C342.427 188.275 336.477 184.195 336.07 180.293C336.075 178.469 336.451 176.666 337.176 174.993Z" fill="black"/>
<path d="M319.601 157.061C323.958 170.815 325.486 176.732 334.412 182.146C347.71 190.275 363.675 181.951 363.512 167.189C363.382 153.891 356.31 133.634 341.207 131.423C337.887 130.926 334.495 131.286 331.354 132.47C328.213 133.654 325.427 135.622 323.261 138.187C321.096 140.752 319.622 143.828 318.982 147.123C318.341 150.419 318.554 153.823 319.601 157.012V157.061Z" fill="#FFB573"/>
<path d="M352.425 154.915C353.963 157.329 355.828 159.518 357.969 161.418C357.468 161.96 356.855 162.386 356.173 162.667C355.49 162.948 354.755 163.077 354.018 163.044L352.425 154.915Z" fill="#ED893E"/>
<path d="M350.88 170.392C351.431 170.332 351.975 170.223 352.506 170.067C352.548 170.057 352.587 170.04 352.622 170.015C352.657 169.99 352.686 169.959 352.709 169.922C352.731 169.886 352.747 169.846 352.754 169.804C352.761 169.762 352.76 169.718 352.75 169.677C352.727 169.591 352.672 169.518 352.596 169.473C352.52 169.427 352.43 169.413 352.343 169.433C350.956 169.815 349.498 169.868 348.086 169.585C346.675 169.303 345.349 168.694 344.215 167.807C344.148 167.741 344.057 167.703 343.963 167.703C343.868 167.703 343.778 167.741 343.711 167.807C343.678 167.839 343.653 167.877 343.635 167.919C343.617 167.961 343.608 168.006 343.608 168.051C343.608 168.097 343.617 168.141 343.635 168.183C343.653 168.225 343.678 168.263 343.711 168.295C344.71 169.098 345.857 169.697 347.087 170.057C348.317 170.417 349.606 170.531 350.88 170.392Z" fill="#263238"/>
<path d="M314.87 129.603C313.078 130.761 311.591 132.333 310.533 134.186C309.475 136.039 308.877 138.119 308.79 140.251C308.716 141.066 308.844 141.887 309.164 142.641C309.324 143.014 309.58 143.338 309.905 143.581C310.23 143.823 310.614 143.976 311.017 144.023C312.253 144.023 313.163 142.917 313.846 141.877L317 137C318.298 135.415 319.391 133.673 320.251 131.814C321.308 128.611 316.805 128.367 314.87 129.603Z" fill="#407BFF"/>
<path d="M316.415 132.838C307.782 142.82 303.913 170.441 329.209 178.147C333.436 174.798 326.608 168.701 323.715 160.995C321.812 155.956 331.453 146.543 335.208 142.674C338.964 138.804 342.427 133.228 347.726 134.122C349.072 134.572 350.52 134.612 351.888 134.236C356.099 132.334 354.05 129.814 351.888 128.058C348.572 125.604 344.624 124.149 340.508 123.864C336.068 123.341 331.568 123.882 327.378 125.442C323.189 127.003 319.431 129.538 316.415 132.838Z" fill="#263238"/>
<path d="M344.491 129.489C354.652 137.959 341.239 138.17 334.135 143.535C327.323 148.689 332.103 157.126 320.576 161.044C311.163 163.792 308.985 162.133 306.384 160.313C309.607 159.755 312.556 158.146 314.77 155.738C316.984 153.33 318.34 150.257 318.625 146.998C319.422 140.82 332.883 119.67 344.491 129.489Z" fill="#263238"/>
<path d="M318.073 168.62C319.665 170.913 322.094 172.489 324.836 173.01C328.478 173.644 329.876 170.311 328.624 167.059C327.438 164.133 324.137 160.28 320.609 161.109C319.396 161.423 318.358 162.205 317.721 163.284C317.084 164.363 316.901 165.651 317.212 166.864C317.377 167.502 317.671 168.099 318.073 168.62Z" fill="#FFB573"/>
<path d="M342.751 130.35C344.719 135.358 350.392 134.691 354.587 139.926C357.172 143.177 362.244 133.147 355.335 129.196C348.425 125.246 339.663 122.515 342.751 130.35Z" fill="#263238"/>
<path d="M336.769 151.485C336.913 151.501 337.059 151.469 337.185 151.396C337.311 151.323 337.41 151.212 337.468 151.079C338.801 148.12 342.8 147.372 342.833 147.372C343.011 147.333 343.168 147.227 343.271 147.075C343.373 146.924 343.415 146.74 343.385 146.559C343.35 146.383 343.246 146.228 343.097 146.127C342.948 146.027 342.765 145.989 342.589 146.023C342.377 146.023 337.825 146.982 336.2 150.558C336.127 150.725 336.122 150.913 336.186 151.083C336.25 151.253 336.377 151.391 336.541 151.469H336.769V151.485Z" fill="#263238"/>
<path d="M357.903 145.502C358.022 145.511 358.141 145.487 358.247 145.432C358.353 145.378 358.442 145.295 358.505 145.193C358.556 145.12 358.593 145.038 358.612 144.95C358.631 144.862 358.632 144.772 358.616 144.684C358.599 144.596 358.565 144.512 358.515 144.438C358.465 144.363 358.401 144.3 358.326 144.251C357.425 143.627 356.388 143.229 355.302 143.09C354.215 142.951 353.111 143.076 352.083 143.454C351.998 143.487 351.92 143.538 351.855 143.603C351.79 143.668 351.739 143.745 351.705 143.831C351.672 143.916 351.656 144.008 351.66 144.1C351.663 144.192 351.685 144.282 351.725 144.364C351.797 144.53 351.931 144.661 352.099 144.728C352.266 144.795 352.453 144.793 352.62 144.722C353.428 144.439 354.293 144.354 355.141 144.473C355.989 144.591 356.797 144.911 357.497 145.405C357.624 145.466 357.762 145.5 357.903 145.502Z" fill="#263238"/>
<path d="M424.737 234.494L415.21 239.908L405.31 261.205C405.31 261.205 414.869 267.285 422.412 262.359C429.956 257.433 424.737 234.494 424.737 234.494Z" fill="#407BFF"/>
<path opacity="0.5" d="M424.737 234.494L415.21 239.908L405.31 261.205C405.31 261.205 414.869 267.285 422.412 262.359C429.956 257.433 424.737 234.494 424.737 234.494Z" fill="white"/>
<path d="M258.149 241.079L269.416 244.33L280.097 266.424C280.097 266.424 271.513 274.373 262.214 266.781C255.256 261.026 258.149 241.079 258.149 241.079Z" fill="#407BFF"/>
<g opacity="0.5">
<path d="M258.149 241.079L269.416 244.33L280.097 266.424C280.097 266.424 271.513 274.373 262.214 266.781C255.256 261.026 258.149 241.079 258.149 241.079Z" fill="white"/>
</g>
<path d="M357.253 151.013C358.033 150.867 358.879 151.745 359.058 152.948C359.236 154.151 358.797 155.257 358.017 155.387C357.237 155.517 356.391 154.655 356.213 153.452C356.034 152.249 356.473 151.127 357.253 151.013Z" fill="#263238"/>
<path d="M359.66 149.827L356.912 151.176C358.57 152.347 359.66 149.827 359.66 149.827Z" fill="#263238"/>
<path d="M343.678 153.81C344.458 153.663 345.304 154.541 345.482 155.744C345.661 156.947 345.222 158.053 344.442 158.183C343.662 158.313 342.816 157.451 342.637 156.248C342.459 155.045 342.865 153.956 343.678 153.81Z" fill="#263238"/>
<path d="M346.052 152.623L343.305 153.972C344.963 155.143 346.052 152.623 346.052 152.623Z" fill="#263238"/>
<path d="M274.845 216.01C273.314 216.019 271.796 215.732 270.374 215.165C265.334 213.1 262.993 207.865 263.871 200.777C263.9 200.564 264.011 200.37 264.182 200.239C264.353 200.108 264.568 200.05 264.782 200.078C264.888 200.09 264.991 200.123 265.085 200.176C265.178 200.228 265.26 200.299 265.325 200.384C265.39 200.469 265.438 200.567 265.464 200.67C265.491 200.774 265.497 200.882 265.481 200.988C264.635 207.28 266.619 211.897 270.927 213.653C273.427 214.509 276.134 214.551 278.661 213.774C281.187 212.998 283.402 211.441 284.989 209.328C289.07 203.898 287.737 196.192 281.38 188.194C264.733 167.303 265.838 156.2 268.196 147.421C271.61 134.675 281.608 120.076 309.896 122.888C310.111 122.91 310.309 123.016 310.447 123.184C310.584 123.352 310.649 123.567 310.627 123.783C310.606 123.998 310.499 124.196 310.332 124.334C310.164 124.471 309.949 124.536 309.733 124.514C282.6 121.816 273.008 135.732 269.756 147.86C267.415 156.639 266.505 166.897 282.648 187.202C292.403 199.444 288.452 207.459 286.29 210.32C284.937 212.072 283.204 213.495 281.222 214.481C279.239 215.466 277.059 215.989 274.845 216.01Z" fill="#263238"/>
</svg>
