<svg width="910" height="678" viewBox="0 0 910 678" fill="none" xmlns="http://www.w3.org/2000/svg">
<path d="M909.091 595.272H0V595.727H909.091V595.272Z" fill="#EBEBEB"/>
<path d="M818 624.527H757.782V624.982H818V624.527Z" fill="#EBEBEB"/>
<path d="M602.218 629.473H586.418V629.927H602.218V629.473Z" fill="#EBEBEB"/>
<path d="M755.964 607.654H721.073V608.109H755.964V607.654Z" fill="#EBEBEB"/>
<path d="M173.909 610.709H95.3818V611.164H173.909V610.709Z" fill="#EBEBEB"/>
<path d="M201.618 610.709H190.109V611.164H201.618V610.709Z" fill="#EBEBEB"/>
<path d="M409.364 618.382H239.036V618.836H409.364V618.382Z" fill="#EBEBEB"/>
<path d="M430.909 514.182H79.8364C77.0861 514.177 74.4501 513.081 72.5071 511.135C70.564 509.188 69.4727 506.55 69.4727 503.8V10.2909C69.4967 7.55641 70.5985 4.94178 72.539 3.01494C74.4794 1.08811 77.1018 0.00468434 79.8364 0H430.909C433.663 0 436.303 1.0938 438.25 3.04076C440.197 4.98773 441.291 7.62839 441.291 10.3818V503.8C441.291 506.553 440.197 509.194 438.25 511.141C436.303 513.088 433.663 514.182 430.909 514.182ZM79.8364 0.363638C77.2066 0.368454 74.6863 1.41648 72.8285 3.27768C70.9707 5.13889 69.9273 7.66118 69.9273 10.2909V503.8C69.9273 506.43 70.9707 508.952 72.8285 510.813C74.6863 512.674 77.2066 513.722 79.8364 513.727H430.909C433.54 513.722 436.063 512.675 437.923 510.814C439.784 508.954 440.832 506.431 440.836 503.8V10.2909C440.832 7.65951 439.784 5.13726 437.923 3.27658C436.063 1.41589 433.54 0.368444 430.909 0.363638H79.8364Z" fill="#EBEBEB"/>
<path d="M824.2 514.182H473.109C470.357 514.177 467.719 513.082 465.773 511.136C463.827 509.19 462.732 506.552 462.727 503.8V10.2909C462.756 7.55475 463.862 4.94014 465.805 3.0138C467.749 1.08747 470.373 0.00463325 473.109 0H824.2C826.931 0.00946272 829.549 1.095 831.486 3.02132C833.422 4.94765 834.522 7.55955 834.545 10.2909V503.8C834.545 506.547 833.457 509.182 831.518 511.128C829.578 513.074 826.947 514.172 824.2 514.182ZM473.109 0.363638C470.478 0.368444 467.955 1.41589 466.095 3.27658C464.234 5.13726 463.187 7.65951 463.182 10.2909V503.8C463.187 506.431 464.234 508.954 466.095 510.814C467.955 512.675 470.478 513.722 473.109 513.727H824.2C826.831 513.722 829.354 512.675 831.214 510.814C833.075 508.954 834.122 506.431 834.127 503.8V10.2909C834.122 7.65951 833.075 5.13726 831.214 3.27658C829.354 1.41589 826.831 0.368444 824.2 0.363638H473.109Z" fill="#EBEBEB"/>
<path d="M397.182 419.764H167.327V435.982H397.182V419.764Z" fill="#EBEBEB"/>
<path d="M397.182 419.764H297.236V435.982H397.182V419.764Z" fill="#E0E0E0"/>
<path d="M201.291 435.982H167.327V595.273H201.291V435.982Z" fill="#EBEBEB"/>
<path d="M201.291 452.418L167.327 440.855V435.982H201.291V452.418Z" fill="#E0E0E0"/>
<path d="M397.182 435.982H363.218V595.273H397.182V435.982Z" fill="#E0E0E0"/>
<path d="M331.2 435.982H297.236V595.273H331.2V435.982Z" fill="#EBEBEB"/>
<path d="M331.182 452.418L297.236 440.855V435.982H331.182V452.418Z" fill="#E0E0E0"/>
<path d="M267.273 435.982H233.309V595.273H267.273V435.982Z" fill="#E0E0E0"/>
<path d="M418.782 58.4907H129.091V305.163H418.782V58.4907Z" fill="#EBEBEB"/>
<path d="M418.782 305.146H422.018L422.018 58.4728H418.782L418.782 305.146Z" fill="#E0E0E0"/>
<path d="M407.891 294.236V69.3818L140.018 69.3818V294.236H407.891Z" fill="#F5F5F5"/>
<path d="M270.709 260.109C287.073 205.564 291.618 125.109 326.418 136.2C361.218 147.291 315.636 266.255 315.636 266.255L270.709 260.109Z" fill="white"/>
<path d="M298.818 262.818C282.164 183.764 286.364 78.8182 234.618 81.2182C182.873 83.6182 234.618 266.255 234.618 266.255L298.818 262.818Z" fill="white"/>
<path d="M335.382 253.945H222.091C219.779 253.871 217.531 254.708 215.83 256.276C214.13 257.844 213.113 260.017 213 262.327C210.691 314.509 219.236 367.782 235.145 419.764H321.891C337.8 367.691 346.345 314.509 344.036 262.327C343.948 260.086 342.999 257.964 341.387 256.403C339.776 254.843 337.625 253.962 335.382 253.945Z" fill="#EBEBEB"/>
<path d="M593.091 86H586.709V595.273H593.091V86Z" fill="#E0E0E0"/>
<path d="M743.073 86H736.691V595.273H743.073V86Z" fill="#E0E0E0"/>
<path d="M547.836 86H541.455V595.273H547.836V86Z" fill="#EBEBEB"/>
<path d="M697.818 86H691.436V595.273H697.818V86Z" fill="#EBEBEB"/>
<path d="M743.073 82.5093H541.455V89.4729H743.073V82.5093Z" fill="#EBEBEB"/>
<path d="M743.073 207.218H541.455V214.182H743.073V207.218Z" fill="#EBEBEB"/>
<path d="M743.073 331.927H541.455V338.891H743.073V331.927Z" fill="#EBEBEB"/>
<path d="M743.073 456.636H541.455V463.6H743.073V456.636Z" fill="#EBEBEB"/>
<path d="M743.073 581.345H541.455V588.309H743.073V581.345Z" fill="#EBEBEB"/>
<path d="M743.073 82.5093H697.818V89.4729H743.073V82.5093Z" fill="#E0E0E0"/>
<path d="M743.073 207.218H697.818V214.182H743.073V207.218Z" fill="#E0E0E0"/>
<path d="M743.073 331.927H697.818V338.891H743.073V331.927Z" fill="#E0E0E0"/>
<path d="M743.073 456.636H697.818V463.6H743.073V456.636Z" fill="#E0E0E0"/>
<path d="M743.073 581.345H697.818V588.309H743.073V581.345Z" fill="#E0E0E0"/>
<path d="M622.782 124.927V115.109H598.545V124.927C598.545 128.005 597.324 130.958 595.149 133.136C592.974 135.314 590.024 136.54 586.945 136.545C583.867 136.545 580.915 137.767 578.737 139.942C576.558 142.117 575.332 145.067 575.327 148.145V207.273H646.018V148.145C646.013 145.067 644.787 142.117 642.609 139.942C640.431 137.767 637.478 136.545 634.4 136.545C631.319 136.545 628.364 135.321 626.185 133.142C624.006 130.964 622.782 128.008 622.782 124.927Z" fill="#F0F0F0"/>
<path d="M672.945 291.382H566.727V331.945H672.945V291.382Z" fill="#F0F0F0"/>
<path d="M672.945 331.927H691.436V291.364H672.945V331.927Z" fill="#E6E6E6"/>
<path d="M672.945 313.891H691.436V309.418H672.945V313.891Z" fill="#EBEBEB"/>
<path d="M672.945 309.418H566.727V313.891H672.945V309.418Z" fill="#F5F5F5"/>
<path d="M644.491 509.636H561.527V581.345H644.491V509.636Z" fill="#F0F0F0"/>
<path d="M644.491 581.364H658.927V509.655H644.491V581.364Z" fill="#E6E6E6"/>
<path d="M644.491 549.455H658.927V541.545H644.491V549.455Z" fill="#EBEBEB"/>
<path d="M644.491 541.545H561.527V549.455H644.491V541.545Z" fill="#F5F5F5"/>
<path d="M644.491 536H658.927V533.182H644.491V536Z" fill="#EBEBEB"/>
<path d="M644.491 533.182H561.527V536H644.491V533.182Z" fill="#F5F5F5"/>
<path d="M581.745 383.727H566.727V456.636H581.745V383.727Z" fill="#F0F0F0"/>
<path d="M581.745 409.709H566.727V430.654H581.745V409.709Z" fill="#FAFAFA"/>
<path d="M581.745 456.654H632.836V383.745H581.745V456.654Z" fill="#E6E6E6"/>
<path d="M604.945 374.309H587.982V456.636H604.945V374.309Z" fill="#EBEBEB"/>
<path d="M604.945 400.473H587.982V413.145H604.945V400.473Z" fill="#FAFAFA"/>
<path d="M604.945 421.636H587.982V434.309H604.945V421.636Z" fill="#FAFAFA"/>
<path d="M604.964 456.636H662.654V374.309H604.964V456.636Z" fill="#E0E0E0"/>
<path d="M623.836 383.727H614.691V456.636H623.836V383.727Z" fill="#F0F0F0"/>
<path d="M622.254 392.964H616.255V447.4H622.254V392.964Z" fill="#FAFAFA"/>
<path d="M623.818 456.654H654.891V383.745H623.818V456.654Z" fill="#E6E6E6"/>
<path d="M648.255 379.891H637.927V456.637H648.255V379.891Z" fill="#EBEBEB"/>
<path d="M648.255 404.272H637.927V416.091H648.255V404.272Z" fill="#FAFAFA"/>
<path d="M648.255 424.018H637.927V435.836H648.255V424.018Z" fill="#FAFAFA"/>
<path d="M648.255 456.636H683.345V379.891H648.255V456.636Z" fill="#E0E0E0"/>
<path d="M643.558 284.758C652.391 275.925 652.391 261.604 643.558 252.771C634.725 243.938 620.404 243.938 611.571 252.771C602.738 261.604 602.738 275.925 611.571 284.758C620.404 293.591 634.725 293.591 643.558 284.758Z" fill="#F5F5F5"/>
<path d="M655.112 291.129C663.656 289.742 669.458 281.691 668.071 273.147C666.684 264.603 658.633 258.801 650.089 260.188C641.546 261.575 635.743 269.626 637.13 278.169C638.517 286.713 646.568 292.515 655.112 291.129Z" fill="#EBEBEB"/>
<path d="M454.545 677.382C649.241 677.382 807.073 668.167 807.073 656.8C807.073 645.433 649.241 636.218 454.545 636.218C259.85 636.218 102.018 645.433 102.018 656.8C102.018 668.167 259.85 677.382 454.545 677.382Z" fill="#F5F5F5"/>
<path d="M229.291 515.8H462.818V636.363C462.818 637.908 462.514 639.438 461.923 640.865C461.332 642.292 460.465 643.589 459.373 644.682C458.28 645.774 456.984 646.64 455.556 647.232C454.129 647.823 452.599 648.127 451.055 648.127H241.055C239.51 648.127 237.98 647.823 236.553 647.232C235.126 646.64 233.829 645.774 232.736 644.682C231.644 643.589 230.778 642.292 230.186 640.865C229.595 639.438 229.291 637.908 229.291 636.363V515.8Z" fill="#407BFF"/>
<path d="M229.291 515.8H394.545L374.218 489.782C371.982 486.927 366.455 484.618 361.855 484.618H213.236C208.655 484.618 206.727 486.927 208.964 489.782L229.291 515.8Z" fill="#407BFF"/>
<path opacity="0.2" d="M229.291 515.8H394.545L374.218 489.782C371.982 486.927 366.455 484.618 361.855 484.618H213.236C208.655 484.618 206.727 486.927 208.964 489.782L229.291 515.8Z" fill="black"/>
<path d="M462.818 515.8H297.582L317.909 498.836C320.145 497.018 325.673 495.473 330.273 495.473H478.873C483.473 495.473 485.382 496.982 483.145 498.836L462.818 515.8Z" fill="#407BFF"/>
<path opacity="0.2" d="M297.582 515.8H462.818V636.363C462.818 637.908 462.514 639.438 461.923 640.865C461.332 642.292 460.465 643.589 459.373 644.682C458.28 645.774 456.984 646.64 455.556 647.232C454.129 647.823 452.599 648.127 451.055 648.127H309.345C307.801 648.127 306.271 647.823 304.844 647.232C303.416 646.64 302.12 645.774 301.027 644.682C299.935 643.589 299.068 642.292 298.477 640.865C297.886 639.438 297.582 637.908 297.582 636.363V515.8Z" fill="white"/>
<path opacity="0.5" d="M249.8 515.8V598.491L255.509 593.982L259.527 598.491L263.018 593.473L266.6 598.491L271.582 594.727L277.073 598.491V515.8H249.8Z" fill="white"/>
<path d="M286.764 335.418L257.4 310.763" stroke="#407BFF" stroke-miterlimit="10"/>
<path d="M301.982 348.2L293.036 340.672" stroke="#407BFF" stroke-miterlimit="10"/>
<path d="M389.945 399.8L486.818 278.727L357.836 170.436L272.382 268.491L259.655 293.018C259.023 293.714 258.541 294.533 258.24 295.424C257.939 296.315 257.826 297.258 257.906 298.195C257.986 299.132 258.259 300.042 258.706 300.869C259.154 301.695 259.768 302.421 260.509 303L376.873 400.709C378.765 402.233 381.163 402.987 383.587 402.818C386.012 402.65 388.283 401.572 389.945 399.8Z" fill="#407BFF"/>
<path opacity="0.5" d="M323.509 310.509L309.564 332.963L315.182 334.182L317.091 339.382L320.818 339.6L322.545 344.054L327.109 345.382L330.618 350.963L344.564 328.509L323.509 310.509Z" fill="white"/>
<path opacity="0.1" d="M482.6 275.181L395.727 372.091L272.327 268.491L357.836 170.436L482.6 275.181Z" fill="black"/>
<path d="M482.6 275.182L395.727 372.091L431.691 374.745L517.218 276.691L482.6 275.182Z" fill="#407BFF"/>
<path opacity="0.3" d="M482.6 275.182L395.727 372.091L431.691 374.745L517.218 276.691L482.6 275.182Z" fill="black"/>
<path d="M323.236 168.909L236.345 265.836L272.327 268.491L357.836 170.436L323.236 168.909Z" fill="#407BFF"/>
<path opacity="0.4" d="M323.236 168.909L236.345 265.836L272.327 268.491L357.836 170.436L323.236 168.909Z" fill="black"/>
<path opacity="0.1" d="M455.855 305.018L482.6 275.181L357.836 170.436L341.873 208.909L455.855 305.018Z" fill="black"/>
<path opacity="0.2" d="M272.327 268.491L357.836 170.436L341.873 208.909L281.655 276.327L272.327 268.491Z" fill="black"/>
<path d="M512.727 92.7273C513.073 93.8909 512.727 95.0363 511.964 95.2545C511.2 95.4727 510.309 94.7091 509.964 93.5454C509.618 92.3818 509.964 91.2363 510.727 91C511.491 90.7636 512.4 91.5636 512.727 92.7273Z" fill="#263238"/>
<path d="M512.855 95.0181C512.512 99.0186 511.618 102.953 510.2 106.709C511.172 107.046 512.206 107.167 513.23 107.064C514.254 106.96 515.242 106.634 516.127 106.109L512.855 95.0181Z" fill="#ED847E"/>
<path d="M515.145 84.9633C515.3 84.8746 515.416 84.7322 515.473 84.5633C515.507 84.4752 515.523 84.381 515.519 84.2866C515.515 84.1921 515.492 84.0994 515.452 84.0142C515.411 83.929 515.353 83.8531 515.281 83.7912C515.21 83.7292 515.126 83.6826 515.036 83.6542C513.971 83.2458 512.824 83.1004 511.691 83.2301C510.557 83.3599 509.472 83.7611 508.527 84.3997C508.404 84.5244 508.33 84.6893 508.319 84.8641C508.308 85.0388 508.36 85.2118 508.467 85.3511C508.573 85.4904 508.726 85.5867 508.897 85.6224C509.069 85.658 509.247 85.6306 509.4 85.5451C510.155 85.0498 511.018 84.7418 511.916 84.6469C512.814 84.5521 513.722 84.673 514.564 84.9997C514.658 85.0341 514.758 85.0486 514.858 85.0423C514.958 85.0361 515.056 85.0092 515.145 84.9633Z" fill="#263238"/>
<path d="M553.164 100.509C553.964 110.145 556.345 127.782 562.036 131.854C562.036 131.854 560.691 143.436 540.218 146.4C517.782 149.709 527.855 136.836 527.855 136.836C539.655 132.109 538 123.072 534.618 114.854L543.273 104.927C546.6 101.254 552.727 95.5816 553.164 100.509Z" fill="#FFC3BD"/>
<path d="M569.364 136.564C571.182 134.909 567.545 128.291 565.309 127.364C559.455 124.909 535.509 127.364 526.509 135.091C525.762 136.369 525.311 137.799 525.189 139.274C525.066 140.75 525.275 142.234 525.8 143.618L569.364 136.564Z" fill="white"/>
<path d="M645.618 622.563C645.027 622.833 644.388 622.981 643.738 623C643.089 623.019 642.442 622.907 641.836 622.672C641.597 622.483 641.421 622.224 641.333 621.932C641.245 621.639 641.25 621.326 641.345 621.036C641.394 620.798 641.494 620.574 641.638 620.379C641.783 620.185 641.968 620.024 642.182 619.909C644.145 618.763 649 620.272 649.2 620.345C649.267 620.363 649.326 620.4 649.372 620.452C649.417 620.504 649.446 620.568 649.455 620.636C649.464 620.708 649.452 620.781 649.419 620.846C649.387 620.91 649.336 620.964 649.273 621C648.111 621.644 646.886 622.168 645.618 622.563ZM642.964 620.345L642.545 620.527C642.421 620.594 642.313 620.688 642.229 620.801C642.144 620.914 642.084 621.044 642.055 621.181C641.927 621.836 642.182 622.036 642.255 622.091C643.127 622.709 646.091 621.818 648.145 620.781C646.471 620.256 644.702 620.107 642.964 620.345Z" fill="#407BFF"/>
<path d="M649.2 621.018C649.141 621.036 649.077 621.036 649.018 621.018C647.2 620.654 643.4 618.381 643.2 616.672C643.171 616.403 643.237 616.133 643.387 615.907C643.536 615.681 643.759 615.515 644.018 615.436C644.27 615.324 644.542 615.266 644.818 615.266C645.094 615.266 645.366 615.324 645.618 615.436C647.727 616.309 649.364 620.381 649.418 620.545C649.454 620.599 649.473 620.662 649.473 620.727C649.473 620.792 649.454 620.855 649.418 620.909C649.393 620.943 649.36 620.97 649.322 620.989C649.284 621.008 649.242 621.018 649.2 621.018ZM644.473 616.054C644.419 616.038 644.362 616.038 644.309 616.054C643.891 616.236 643.909 616.454 643.927 616.545C644.036 617.563 646.618 619.4 648.455 620.072C647.909 618.891 646.636 616.6 645.345 616.054C645.065 615.946 644.754 615.946 644.473 616.054Z" fill="#407BFF"/>
<path d="M539.055 642.09C537.109 642.09 535.236 641.818 534.6 640.945C534.437 640.717 534.35 640.444 534.35 640.163C534.35 639.883 534.437 639.61 534.6 639.381C534.721 639.171 534.883 638.987 535.077 638.84C535.271 638.693 535.492 638.587 535.727 638.527C538.255 637.854 543.564 640.872 543.782 641C543.849 641.032 543.904 641.085 543.939 641.152C543.973 641.218 543.985 641.294 543.973 641.368C543.961 641.442 543.925 641.509 543.871 641.561C543.816 641.613 543.747 641.645 543.673 641.654C542.15 641.938 540.604 642.084 539.055 642.09ZM536.655 639.145C536.421 639.136 536.187 639.167 535.964 639.236C535.672 639.301 535.418 639.477 535.255 639.727C535 640.181 535.091 640.4 535.255 640.527C535.964 641.509 539.8 641.527 542.527 641.127C540.716 640.093 538.722 639.42 536.655 639.145Z" fill="#407BFF"/>
<path d="M543.636 641.673H543.491C541.673 640.854 538.036 637.563 538.309 635.854C538.309 635.454 538.673 634.945 539.655 634.854C540.01 634.815 540.369 634.849 540.71 634.955C541.051 635.062 541.367 635.238 541.636 635.473C543.582 637.054 543.982 641.145 544 641.309C544.01 641.372 544.002 641.436 543.976 641.494C543.95 641.552 543.908 641.602 543.855 641.636C543.788 641.672 543.711 641.685 543.636 641.673ZM540 635.527H539.782C539.127 635.527 539.091 635.854 539.073 635.927C538.909 636.963 541.382 639.563 543.236 640.673C543.078 638.938 542.378 637.297 541.236 635.982C540.896 635.681 540.454 635.519 540 635.527Z" fill="#407BFF"/>
<path d="M560.327 641.309H545.145L543.636 606.182H558.818L560.327 641.309Z" fill="#FFC3BD"/>
<path d="M666.964 617.327L652.982 622.145L638.473 589.036L652.455 584.218L666.964 617.327Z" fill="#FFC3BD"/>
<path d="M649.655 618.672L666.018 613.672C666.308 613.584 666.619 613.597 666.9 613.709C667.181 613.822 667.415 614.027 667.564 614.291L674.382 626.291C674.546 626.584 674.641 626.911 674.661 627.246C674.681 627.582 674.625 627.918 674.498 628.229C674.37 628.54 674.174 628.818 673.924 629.043C673.675 629.267 673.377 629.433 673.055 629.527C667.327 631.182 664.473 631.691 657.309 633.891C652.891 635.236 641.764 639.454 635.491 640.709C629.218 641.963 627.2 635.963 629.636 634.891C640.545 630.072 645.018 624.6 647.618 620.345C648.072 619.559 648.796 618.965 649.655 618.672Z" fill="#263238"/>
<path d="M545.255 639.545H561.818C562.118 639.549 562.408 639.653 562.642 639.841C562.876 640.029 563.04 640.289 563.109 640.581L566.109 654.072C566.184 654.398 566.183 654.736 566.108 655.061C566.032 655.386 565.884 655.69 565.673 655.949C565.463 656.208 565.197 656.416 564.894 656.557C564.592 656.698 564.261 656.769 563.927 656.763C557.945 656.672 549.382 656.309 541.8 656.309C533.018 656.309 529.327 656.799 519.018 656.799C512.8 656.799 511.073 650.509 513.673 649.927C525.545 647.327 531.345 647.054 541.6 640.727C542.687 640.007 543.951 639.598 545.255 639.545Z" fill="#263238"/>
<path d="M589.345 141.527C593.764 145.581 597.582 149.636 601.545 153.872C605.509 158.109 609.182 162.491 612.745 167.163C616.467 171.91 619.846 176.917 622.855 182.145C624.499 185.027 625.921 188.029 627.109 191.127C627.418 191.981 627.727 192.8 627.982 193.727C628.28 194.665 628.529 195.618 628.727 196.581L629.036 198.09L629.255 199.763C629.458 201.296 629.458 202.849 629.255 204.381C628.837 207.274 627.768 210.035 626.127 212.454C624.93 214.221 623.526 215.838 621.945 217.272C619.404 219.578 616.625 221.608 613.655 223.327C608.423 226.32 602.949 228.868 597.291 230.945C586.558 234.929 575.498 237.971 564.236 240.036L561.055 229.127C570.927 224.854 580.927 220.236 590.145 215.309C594.633 212.955 598.952 210.294 603.073 207.345C604.789 206.126 606.368 204.723 607.782 203.163C608.211 202.702 608.573 202.181 608.855 201.618C609 201.309 608.855 201.345 608.673 202C608.545 203.218 608.564 202.272 608.273 201.618C608.182 201.309 608.018 200.891 607.855 200.491C607.691 200.091 607.491 199.636 607.291 199.2C606.306 197.217 605.207 195.292 604 193.436C601.192 189.267 598.157 185.255 594.909 181.418C591.564 177.454 588.036 173.509 584.418 169.636C580.8 165.763 577 161.854 573.509 158.254L589.345 141.527Z" fill="#FFC3BD"/>
<path d="M565.218 227.4L550.909 231.727L560.109 246.854C560.109 246.854 568.564 243.364 570.436 236.182L565.218 227.4Z" fill="#FFC3BD"/>
<path d="M545.127 237.091L550.764 249.563L560.018 246.873L550.818 231.727L545.127 237.091Z" fill="#FFC3BD"/>
<path d="M555.818 145.636C554.455 160.182 585.218 182.691 585.218 182.691L614.836 162.418C609.693 152.932 602.175 144.945 593.018 139.236C576.036 128.363 557.527 127.563 555.818 145.636Z" fill="#407BFF"/>
<g opacity="0.3">
<path d="M555.818 145.636C554.455 160.182 585.218 182.691 585.218 182.691L614.836 162.418C609.693 152.932 602.175 144.945 593.018 139.236C576.036 128.363 557.527 127.563 555.818 145.636Z" fill="white"/>
</g>
<path d="M505.455 144.472C505.455 144.472 492.164 164.872 523.727 274.29L603.982 262.436C602.855 251.345 589.436 202.963 588.982 150.072C588.963 147.518 588.427 144.994 587.406 142.653C586.385 140.311 584.901 138.201 583.042 136.449C581.183 134.697 578.988 133.34 576.591 132.46C574.193 131.58 571.642 131.194 569.091 131.327C566.764 131.454 564.364 131.618 561.982 131.854C550.525 132.876 539.136 134.557 527.873 136.89C520.216 138.838 512.722 141.373 505.455 144.472Z" fill="#407BFF"/>
<g opacity="0.3">
<path d="M505.455 144.472C505.455 144.472 492.164 164.872 523.727 274.29L603.982 262.436C602.855 251.345 589.436 202.963 588.982 150.072C588.963 147.518 588.427 144.994 587.406 142.653C586.385 140.311 584.901 138.201 583.042 136.449C581.183 134.697 578.988 133.34 576.591 132.46C574.193 131.58 571.642 131.194 569.091 131.327C566.764 131.454 564.364 131.618 561.982 131.854C550.525 132.876 539.136 134.557 527.873 136.89C520.216 138.838 512.722 141.373 505.455 144.472Z" fill="white"/>
</g>
<path opacity="0.2" d="M503.491 179.636L503.764 179.327L522.636 181C525.509 193.182 515 209.8 509.455 217.509C506.785 205.002 504.794 192.359 503.491 179.636Z" fill="black"/>
<path opacity="0.2" d="M543.636 606.2L544.418 624.309H559.6L558.818 606.2H543.636Z" fill="black"/>
<path opacity="0.2" d="M652.455 584.218L638.473 589.036L645.964 606.109L659.945 601.29L652.455 584.218Z" fill="black"/>
<path d="M551.182 78.7636C554.527 93.4363 557.218 101.854 552.109 111.491C544.436 125.836 524.691 124.454 517.036 111.073C510.145 99.0181 505.818 77.0545 518.255 67.1636C520.98 64.9753 524.219 63.5185 527.664 62.931C531.109 62.3435 534.648 62.6447 537.944 63.806C541.241 64.9674 544.187 66.9505 546.503 69.5679C548.819 72.1852 550.43 75.3503 551.182 78.7636Z" fill="#FFC3BD"/>
<path d="M521.709 93.1451L516.127 96.5632L516.655 77.4723C513.056 77.6269 509.505 76.5987 506.545 74.545C508.564 72.6178 539.982 61.6178 549.782 63.5269C550.8 63.1087 552.036 61.2178 552.036 61.2178C552.036 61.2178 552.418 63.5996 550.764 64.5087C551.964 64.2723 554.964 64.8541 555.8 66.6178C554.423 66.2418 552.962 66.3248 551.636 66.8541C551.636 66.8541 562.545 68.5087 558.673 83.636C554.327 100.309 555.764 109.891 555.764 109.891C555.764 109.891 547.654 116.163 540.6 115C533.073 106.709 522.2 96.7451 521.709 93.1451Z" fill="#263238"/>
<path d="M511.018 73.0361C502.164 73.0361 498.982 68.7088 496.709 65.0724C503.073 64.3997 516.327 60.3088 526.164 59.6179C536 58.927 546.782 60.7633 543.527 65.0724C540.273 69.3815 511.018 73.0361 511.018 73.0361Z" fill="#263238"/>
<path d="M512.964 69.0907C505.691 68.0725 498.6 61.2179 504.055 54.6543C506.073 59.4725 519.691 58.9088 529.364 56.8907C542.091 54.2361 550.909 58.527 546.4 67.1998C543.927 71.9452 512.964 69.0907 512.964 69.0907Z" fill="#263238"/>
<path d="M529.564 88.7998C530.605 92.3898 530.438 96.2223 529.091 99.7089C527.273 104.273 523.236 103.345 521.127 99.3998C519.309 95.7634 517.927 89.1634 521.018 85.8725C524.109 82.5816 528.255 84.4907 529.564 88.7998Z" fill="#FFC3BD"/>
<path d="M552.2 270.091C552.2 270.091 565.218 380.909 574.673 424.327C585.018 471.891 636.055 601.563 636.055 601.563L661.509 592.763C661.509 592.763 628.782 495.127 620.091 428.636C613.418 377.581 603.909 262.436 603.909 262.436L552.2 270.091Z" fill="#263238"/>
<path d="M629.545 593.418C629.418 593.418 634.764 604.327 634.764 604.327L664.491 594.673L661 585.8L629.545 593.418Z" fill="#407BFF"/>
<path opacity="0.3" d="M559.382 326.945C563.455 357.745 568.673 394.218 573.255 417.509C580 381.818 581.582 336.745 559.382 326.945Z" fill="black"/>
<path d="M523.727 274.29C523.727 274.29 512.927 378.4 514.636 424.654C516.345 472.763 538.818 620.8 538.818 620.8H564.509C564.509 620.8 559.782 475.563 560.873 428.327C562.127 376.818 581.436 265.763 581.436 265.763L523.727 274.29Z" fill="#263238"/>
<path d="M533.818 610.563C533.709 610.563 535.273 621.218 535.273 621.218H566.527L567.382 611.709L533.818 610.563Z" fill="#407BFF"/>
<path d="M518.745 170.036C515.909 174.545 513.036 178.6 510.055 182.764C507.073 186.927 503.945 190.945 500.764 194.945C494.277 203.06 487.249 210.726 479.727 217.891C477.691 219.709 475.818 221.527 473.618 223.182L472.018 224.473L471.218 225.109C470.927 225.345 470.8 225.473 470.2 225.909C468.399 227.194 466.421 228.21 464.327 228.927C461.086 230.034 457.696 230.647 454.273 230.745C451.376 230.843 448.477 230.715 445.6 230.364C435.084 228.985 424.825 226.082 415.145 221.745L418.291 210.836C427.593 211.94 436.962 212.39 446.327 212.182C448.399 212.073 450.463 211.849 452.509 211.509C454.051 211.284 455.548 210.817 456.945 210.127C457.382 209.891 457.618 209.654 457.564 209.6C457.509 209.545 457.8 209.364 457.964 209.2L458.582 208.636L459.8 207.491C461.436 206.036 462.982 204.273 464.582 202.673C467.727 199.291 470.855 195.818 473.818 192.127C476.782 188.436 479.782 184.727 482.691 180.909C485.6 177.091 488.418 173.218 491.255 169.345C494.091 165.473 496.855 161.4 499.473 157.636L518.745 170.036Z" fill="#FFC3BD"/>
<path d="M529.309 165.218C535.418 185.218 499.945 207.382 499.945 207.382L476.891 178.018C482.087 168.336 488.503 159.36 495.982 151.309C511.673 134.236 524.655 150 529.309 165.218Z" fill="#407BFF"/>
<g opacity="0.3">
<path d="M529.309 165.218C535.418 185.218 499.945 207.382 499.945 207.382L476.891 178.018C482.087 168.336 488.503 159.36 495.982 151.309C511.673 134.236 524.655 150 529.309 165.218Z" fill="white"/>
</g>
<path d="M423.636 211.509L404.964 208.091L406.927 224.236C406.927 224.236 416.636 229.691 423.673 221.164L423.636 211.509Z" fill="#FFC3BD"/>
<path d="M397.764 211.727L401.8 223.382L406.891 224.236L404.927 208.091L397.764 211.727Z" fill="#FFC3BD"/>
</svg>
