<svg width="83" height="70" viewBox="0 0 83 70" fill="none" xmlns="http://www.w3.org/2000/svg">
<path d="M54.346 30.0623H46.6632V22.3795H38.8546V30.0623H31.1719V37.863H38.8546V45.5458H46.6632V37.863H54.346V30.0623Z" fill="url(#paint0_linear_1306_276)"/>
<path style="mix-blend-mode:screen" opacity="0.39" d="M50.5634 37.863H54.3459V30.0623H46.6552V22.3795H38.8545V25.7058C41.2922 30.8329 45.6094 34.9299 50.5634 37.863Z" fill="url(#paint1_linear_1306_276)"/>
<path d="M53.0802 51.0267C51.3266 51.8839 42.8575 51.0267 42.7552 52.0411C42.4957 54.9664 48.2598 55.973 49.8325 56.2875C56.3279 57.6086 61.51 53.7476 69.0984 46.6074C76.962 39.2391 82.9463 28.2222 82.2464 18.2983C81.2634 4.29316 68.6895 -2.82343 57.4995 1.04547C52.1463 2.81632 47.363 5.98438 43.6438 10.2223C43.4423 10.4567 43.1925 10.6448 42.9116 10.7738C42.6306 10.9027 42.3252 10.9695 42.016 10.9695C41.7069 10.9695 41.4015 10.9027 41.1205 10.7738C40.8396 10.6448 40.5898 10.4567 40.3883 10.2223C36.6676 5.98611 31.8848 2.81839 26.5326 1.04547C15.3426 -2.82343 2.85515 4.67061 0.464602 17.8972C-2.41349 33.8132 8.28892 52.1748 26.7763 63.5928C31.4001 66.4395 45.5075 71.6059 52.6162 69.5141C57.2558 68.1459 69.0119 58.8589 67.7301 57.5771C64.506 54.3688 56.8154 62.4133 51.0514 62.0201C45.649 61.6505 42.0868 60.6675 40.2389 57.9703C37.2507 53.5746 37.8798 47.8105 36.4093 48.298C32.9178 47.1264 35.2769 56.0831 32.328 54.298C19.8406 46.7568 12.5825 34.4738 14.5091 23.8028C16.0818 15.0427 24.3543 10.0808 31.7619 12.6443C35.0494 13.7496 38.0183 15.6389 40.4119 18.1489C40.6134 18.3641 40.857 18.5357 41.1275 18.653C41.398 18.7702 41.6897 18.8308 41.9846 18.8308C42.2794 18.8308 42.5712 18.7702 42.8417 18.653C43.1122 18.5357 43.3558 18.3641 43.5573 18.1489C45.9499 15.6377 48.9191 13.7482 52.2073 12.6443C59.6227 10.0808 67.8795 15.0427 69.5073 23.8028C70.7419 30.6206 68.202 38.0989 62.9648 44.5707C60.7079 43.7136 55.7066 40.7647 54.244 42.998C53.3633 44.3662 56.3672 45.3571 56.7446 46.3951C57.3108 48.0071 54.4013 50.3819 53.0802 51.0267Z" fill="url(#paint2_linear_1306_276)"/>
<path style="mix-blend-mode:screen" opacity="0.48" d="M52.2548 65.6452C57.1931 64.8588 62.5247 59.5587 67.8012 57.7108C67.7888 57.6611 67.7645 57.6152 67.7304 57.5771C64.5063 54.3687 56.8157 62.4132 51.0516 62.02C45.6493 61.6505 42.0871 60.6675 40.2391 57.9703C37.2509 53.5745 37.88 47.8105 36.4095 48.298C32.9181 47.1263 35.2772 56.083 32.3283 54.298C19.8409 46.7567 12.5827 34.4737 14.5093 23.8028C16.082 15.0427 24.3546 10.0807 31.7621 12.6443C33.4825 13.2286 35.125 14.0208 36.6533 15.0034C31.1488 10.9457 25.7386 7.53292 18.7557 9.30224C14.2341 10.4503 9.8226 15.255 8.83178 19.8395C3.4216 44.8223 33.8696 68.5783 52.2548 65.6452Z" fill="url(#paint3_linear_1306_276)"/>
<path style="mix-blend-mode:screen" opacity="0.48" d="M82.2467 18.2983C81.2638 4.29316 68.6898 -2.82343 57.4999 1.04547C54.2769 2.15306 51.241 3.74394 48.496 5.76365C48.496 6.00743 57.9796 2.36656 63.6099 3.84493C74.7055 6.73875 77.2769 17.103 75.7278 27.0033C74.3595 35.7162 64.6401 50.0438 53.3086 54.0857C51.0202 54.872 45.6651 53.8183 43.597 51.648C43.0858 51.7266 42.8106 51.8524 42.7556 52.0411C42.4961 54.9664 48.2601 55.973 49.8328 56.2875C56.3282 57.6086 61.5103 53.7476 69.0987 46.6074C76.9388 39.2391 82.9466 28.2222 82.2467 18.2983Z" fill="url(#paint4_linear_1306_276)"/>
<defs>
<linearGradient id="paint0_linear_1306_276" x1="35.0172" y1="41.7005" x2="50.5007" y2="26.217" gradientUnits="userSpaceOnUse">
<stop stop-color="#0076C1"/>
<stop offset="0.27" stop-color="#1897D9"/>
<stop offset="0.56" stop-color="#2CB3EE"/>
<stop offset="0.81" stop-color="#38C4FB"/>
<stop offset="1" stop-color="#3CCAFF"/>
</linearGradient>
<linearGradient id="paint1_linear_1306_276" x1="35.017" y1="41.7005" x2="50.5005" y2="26.217" gradientUnits="userSpaceOnUse">
<stop stop-color="#0076C1"/>
<stop offset="0.27" stop-color="#1897D9"/>
<stop offset="0.56" stop-color="#2CB3EE"/>
<stop offset="0.81" stop-color="#38C4FB"/>
<stop offset="1" stop-color="#3CCAFF"/>
</linearGradient>
<linearGradient id="paint2_linear_1306_276" x1="9.70437" y1="59.7554" x2="71.1429" y2="-1.6832" gradientUnits="userSpaceOnUse">
<stop stop-color="#009D6D"/>
<stop offset="1" stop-color="#79E283"/>
</linearGradient>
<linearGradient id="paint3_linear_1306_276" x1="1119.21" y1="4433.86" x2="5226.49" y2="144.047" gradientUnits="userSpaceOnUse">
<stop stop-color="#009D6D"/>
<stop offset="1" stop-color="#79E283"/>
</linearGradient>
<linearGradient id="paint4_linear_1306_276" x1="921.267" y1="4854.88" x2="5071.29" y2="1951.76" gradientUnits="userSpaceOnUse">
<stop stop-color="#009D6D"/>
<stop offset="1" stop-color="#79E283"/>
</linearGradient>
</defs>
</svg>
